<svg width="30" height="30" viewBox="0 0 30 30" fill="none" xmlns="http://www.w3.org/2000/svg">
<circle cx="15" cy="15" r="14.5" fill="white" stroke="black"/>
<path d="M23.6546 13.45H22.5943C22.3973 12.6817 22.0897 11.9621 21.6886 11.3039L22.4508 10.54C22.6566 10.3342 22.7697 10.0597 22.7697 9.76818C22.7697 9.47713 22.6557 9.20218 22.4508 8.99684L21.1804 7.72781C20.7684 7.31538 20.0484 7.31582 19.6382 7.72737L18.8438 8.51698C18.193 8.13762 17.4951 7.84527 16.7264 7.65733V6.52273C16.7264 5.92106 16.2457 5.42641 15.644 5.42641H13.8481C13.2465 5.42641 12.7731 5.92106 12.7731 6.52273V7.65689C12.0049 7.8444 11.3027 8.13719 10.651 8.51698L9.85702 7.72737C9.44547 7.31495 8.72503 7.31538 8.31217 7.72694L7.0427 8.99597C6.8391 9.19914 6.72294 9.48018 6.72294 9.76731C6.72294 10.0584 6.83562 10.3324 7.04183 10.5382L7.80403 11.3039C7.40335 11.9621 7.09534 12.6817 6.8987 13.45H5.83805C5.23595 13.45 4.75 13.9338 4.75 14.5341V16.3287C4.75 16.9308 5.23595 17.4037 5.83805 17.4037H6.8987C7.09534 18.172 7.40292 18.8959 7.80316 19.5541L7.04096 20.3211C6.83475 20.5269 6.72163 20.8023 6.72163 21.0938C6.72163 21.3853 6.83518 21.6606 7.04096 21.8664L8.3113 23.1363C8.51751 23.3421 8.79116 23.4552 9.0822 23.4552C9.37325 23.4552 9.64733 23.3417 9.85354 23.1363L10.651 22.3463C11.3027 22.7261 12.0049 23.0184 12.7731 23.2068V24.3397C12.7731 24.9413 13.2465 25.4264 13.8481 25.4264H15.644C16.2457 25.4264 16.7264 24.9413 16.7264 24.3397V23.2064C17.4951 23.0184 18.193 22.7261 18.8447 22.3463L19.6351 23.1346C19.8414 23.3412 20.1154 23.4543 20.4074 23.4543C20.6988 23.4543 20.9734 23.3408 21.1791 23.1354L22.4495 21.8664C22.6552 21.6611 22.7679 21.3866 22.7688 21.0955C22.7688 20.804 22.6548 20.5304 22.4495 20.3242L21.6881 19.5541C22.0884 18.8955 22.396 18.1711 22.593 17.4037H23.6537C24.2554 17.4037 24.75 16.9308 24.75 16.3287V14.5341C24.7504 13.9338 24.2562 13.45 23.6546 13.45ZM14.7456 18.8476C12.841 18.8476 11.2966 17.3176 11.2966 15.4316C11.2966 13.5444 12.841 12.0165 14.7456 12.0165C16.6507 12.0165 18.196 13.5444 18.196 15.4316C18.1956 17.318 16.6507 18.8476 14.7456 18.8476Z" fill="black"/>
</svg>
