<svg width="106" height="66" viewBox="0 0 106 66" fill="none" xmlns="http://www.w3.org/2000/svg">
<rect x="1.75" y="2" width="102" height="62" rx="3.5" stroke="black" stroke-width="3"/>
<rect x="1.75" y="2" width="102" height="13" rx="3.5" stroke="black" stroke-width="3"/>
<circle cx="97.25" cy="8.5" r="2" fill="black"/>
<circle cx="91.25" cy="8.5" r="2" fill="black"/>
<circle cx="85.25" cy="8.5" r="2" fill="black"/>
<path fill-rule="evenodd" clip-rule="evenodd" d="M52.75 54.4264C61.0343 54.4264 67.75 47.7107 67.75 39.4264C67.75 31.1421 61.0343 24.4264 52.75 24.4264C44.4657 24.4264 37.75 31.1421 37.75 39.4264C37.75 47.7107 44.4657 54.4264 52.75 54.4264ZM60.5943 37.45H61.6545C62.2562 37.45 62.7504 37.9338 62.75 38.5341V40.3287C62.75 40.9308 62.2553 41.4037 61.6537 41.4037H60.593C60.396 42.1711 60.0884 42.8955 59.6881 43.5541L60.4495 44.3242C60.6548 44.5304 60.7688 44.804 60.7688 45.0955C60.7679 45.3866 60.6552 45.6611 60.4495 45.8664L59.1791 47.1354C58.9734 47.3408 58.6989 47.4543 58.4073 47.4543C58.1154 47.4543 57.8414 47.3412 57.6352 47.1346L56.8447 46.3463C56.193 46.7261 55.4951 47.0184 54.7264 47.2064V48.3397C54.7264 48.9413 54.2457 49.4264 53.644 49.4264H51.8481C51.2465 49.4264 50.7731 48.9413 50.7731 48.3397V47.2068C50.0049 47.0184 49.3027 46.7261 48.651 46.3463L47.8535 47.1363C47.6473 47.3417 47.3733 47.4552 47.0822 47.4552C46.7912 47.4552 46.5175 47.3421 46.3113 47.1363L45.041 45.8664C44.8352 45.6606 44.7216 45.3853 44.7216 45.0938C44.7216 44.8023 44.8347 44.5269 45.041 44.3211L45.8032 43.5541C45.4029 42.8959 45.0953 42.172 44.8987 41.4037H43.838C43.236 41.4037 42.75 40.9308 42.75 40.3287V38.5341C42.75 37.9338 43.236 37.45 43.838 37.45H44.8987C45.0953 36.6817 45.4034 35.9621 45.804 35.3039L45.0418 34.5382C44.8356 34.3324 44.7229 34.0584 44.7229 33.7673C44.7229 33.4802 44.8391 33.1991 45.0427 32.996L46.3122 31.7269C46.725 31.3154 47.4455 31.3149 47.857 31.7274L48.651 32.517C49.3027 32.1372 50.0049 31.8444 50.7731 31.6569V30.5227C50.7731 29.9211 51.2465 29.4264 51.8481 29.4264H53.644C54.2457 29.4264 54.7264 29.9211 54.7264 30.5227V31.6573C55.4951 31.8453 56.193 32.1376 56.8438 32.517L57.6382 31.7274C58.0484 31.3158 58.7684 31.3154 59.1804 31.7278L60.4508 32.9968C60.6557 33.2022 60.7697 33.4771 60.7697 33.7682C60.7697 34.0597 60.6566 34.3342 60.4508 34.54L59.6886 35.3039C60.0897 35.9621 60.3973 36.6817 60.5943 37.45ZM49.2966 39.4316C49.2966 41.3176 50.841 42.8476 52.7456 42.8476C54.6507 42.8476 56.1956 41.318 56.196 39.4316C56.196 37.5444 54.6507 36.0165 52.7456 36.0165C50.841 36.0165 49.2966 37.5444 49.2966 39.4316Z" fill="black"/>
</svg>
