<svg width="106" height="67" viewBox="0 0 106 67" fill="none" xmlns="http://www.w3.org/2000/svg">
<rect x="0.25" y="1.25" width="105" height="65" rx="5" fill="white"/>
<rect x="1.75" y="2.42599" width="102" height="62" rx="3.5" stroke="black" stroke-width="3"/>
<rect x="1.75" y="2.42599" width="102" height="13" rx="3.5" stroke="black" stroke-width="3"/>
<circle cx="97.25" cy="8.92599" r="2" fill="black"/>
<circle cx="91.25" cy="8.92599" r="2" fill="black"/>
<circle cx="85.25" cy="8.92599" r="2" fill="black"/>
<circle cx="52.75" cy="39.8524" r="15" fill="black"/>
<path d="M58.8168 37.612C58.4585 34.5793 55.8791 32.2269 52.75 32.2269C49.6209 32.2269 47.0415 34.5793 46.6832 37.612C44.511 37.612 42.75 39.3729 42.75 41.545C42.75 43.7171 44.5108 45.4779 46.6829 45.4779H58.8171C60.9892 45.4779 62.75 43.7171 62.75 41.545C62.75 39.3729 60.989 37.612 58.8168 37.612Z" fill="white"/>
</svg>
