<svg width="30" height="30" viewBox="0 0 30 30" fill="none" xmlns="http://www.w3.org/2000/svg">
<circle cx="15" cy="15" r="14.5" fill="white" stroke="black"/>
<g clip-path="url(#clip0_8_236)">
<path d="M9.39656 17.7009C9.32031 17.6247 9.20868 17.5942 9.1063 17.6281C8.58526 17.8003 8.07682 18.1068 7.64022 18.5434C6.5207 19.663 6.54153 21.7988 6.22298 23.3325C6.17402 23.5683 6.39693 23.7943 6.63296 23.7467C8.13537 23.444 10.267 23.402 11.3829 22.2861C11.8195 21.8495 12.1261 21.3412 12.2983 20.8201C12.3321 20.7177 12.3017 20.6061 12.2254 20.5299L9.39656 17.7009Z" fill="black"/>
<path d="M24.2987 5.62774C23.7176 5.04669 22.7827 5.02384 22.174 5.57587L13.5918 13.3584C12.9873 13.9067 12.3962 14.4695 11.8191 15.0466L10.1906 16.6751L13.2513 19.7358L14.8798 18.1073C15.4568 17.5302 16.0198 16.9391 16.5679 16.3346L24.3505 7.75243C24.9026 7.14368 24.8798 6.20884 24.2987 5.62774Z" fill="black"/>
</g>
<defs>
<clipPath id="clip0_8_236">
<rect width="20" height="20" fill="white" transform="translate(4.75 5.17641)"/>
</clipPath>
</defs>
</svg>
