<svg width="106" height="66" viewBox="0 0 106 66" fill="none" xmlns="http://www.w3.org/2000/svg">
<rect x="0.25" y="0.25" width="105" height="65" rx="5" fill="white"/>
<rect x="1.75" y="1.5" width="102" height="62" rx="3.5" stroke="black" stroke-width="3"/>
<rect x="1.75" y="1.5" width="102" height="13" rx="3.5" stroke="black" stroke-width="3"/>
<circle cx="97.25" cy="8" r="2" fill="black"/>
<circle cx="91.25" cy="8" r="2" fill="black"/>
<circle cx="85.25" cy="8" r="2" fill="black"/>
<circle cx="52.75" cy="38.9264" r="15" fill="black"/>
<path fill-rule="evenodd" clip-rule="evenodd" d="M45.05 31.9264C44.8843 31.9264 44.75 32.0607 44.75 32.2264V39.0931C44.75 39.2588 44.8843 39.3931 45.05 39.3931H48.3833C48.4938 39.3931 48.5833 39.3035 48.5833 39.1931V35.2064C48.5833 35.0959 48.6729 35.0064 48.7833 35.0064H52.55C52.6605 35.0064 52.75 34.9169 52.75 34.8064V32.2264C52.75 32.0607 52.6157 31.9264 52.45 31.9264H45.05Z" fill="white"/>
<path fill-rule="evenodd" clip-rule="evenodd" d="M56.75 35.4931C56.75 35.3274 56.6157 35.1931 56.45 35.1931H49.05C48.8843 35.1931 48.75 35.3274 48.75 35.4931V42.3597C48.75 42.5254 48.8843 42.6597 49.05 42.6597H52.2833C52.449 42.6597 52.5833 42.5254 52.5833 42.3597V38.5731C52.5833 38.4074 52.7176 38.2731 52.8833 38.2731H56.45C56.6157 38.2731 56.75 38.1388 56.75 37.9731V35.4931Z" fill="white"/>
<path d="M52.75 38.7597C52.75 38.5941 52.8843 38.4597 53.05 38.4597H60.45C60.6157 38.4597 60.75 38.5941 60.75 38.7597V45.6264C60.75 45.7921 60.6157 45.9264 60.45 45.9264H53.05C52.8843 45.9264 52.75 45.7921 52.75 45.6264V38.7597Z" fill="white"/>
</svg>
