<svg width="106" height="66" viewBox="0 0 106 66" fill="none" xmlns="http://www.w3.org/2000/svg">
<rect x="1.75" y="2.42599" width="102" height="62" rx="3.5" stroke="black" stroke-width="3"/>
<rect x="1.75" y="2.42599" width="102" height="13" rx="3.5" stroke="black" stroke-width="3"/>
<circle cx="97.25" cy="8.92599" r="2" fill="black"/>
<circle cx="91.25" cy="8.92599" r="2" fill="black"/>
<circle cx="85.25" cy="8.92599" r="2" fill="black"/>
<path fill-rule="evenodd" clip-rule="evenodd" d="M52.75 54.8524C61.0343 54.8524 67.75 48.1367 67.75 39.8524C67.75 31.5681 61.0343 24.8524 52.75 24.8524C44.4657 24.8524 37.75 31.5681 37.75 39.8524C37.75 48.1367 44.4657 54.8524 52.75 54.8524ZM48.75 29.8524H49.0167L49.0167 29.8623C49.0167 30.3483 49.4106 30.7423 49.8967 30.7423H55.6033C56.0893 30.7423 56.4833 30.3483 56.4833 29.8623L56.4833 29.8524H56.75C57.8546 29.8524 58.75 30.7478 58.75 31.8524V47.8524C58.75 48.957 57.8546 49.8524 56.75 49.8524H48.75C47.6454 49.8524 46.75 48.957 46.75 47.8524V31.8524C46.75 30.7478 47.6454 29.8524 48.75 29.8524ZM45.75 31.8524C45.75 30.1956 47.0931 28.8524 48.75 28.8524H56.75C58.4069 28.8524 59.75 30.1956 59.75 31.8524V47.8524C59.75 49.5093 58.4069 50.8524 56.75 50.8524H48.75C47.0931 50.8524 45.75 49.5093 45.75 47.8524V31.8524ZM49.2367 49.2223C49.1152 49.2223 49.0167 49.3208 49.0167 49.4423C49.0167 49.5638 49.1152 49.6623 49.2367 49.6623H56.2633C56.3848 49.6623 56.4833 49.5638 56.4833 49.4423C56.4833 49.3208 56.3848 49.2223 56.2633 49.2223H49.2367Z" fill="black"/>
</svg>
