<svg width="63" height="30" viewBox="0 0 63 30" fill="none" xmlns="http://www.w3.org/2000/svg">
<path d="M47.8297 0.974669C52.0297 1.04134 55.463 2.34133 58.1297 4.87467C60.863 7.34133 62.2297 10.7747 62.2297 15.1747C62.2297 19.5747 60.8297 23.0747 58.0297 25.6747C55.2297 28.208 51.6964 29.4747 47.4297 29.4747C44.0297 29.4747 41.0964 28.608 38.6297 26.8747C36.163 25.0747 33.6297 22.5413 31.0297 19.2747C29.363 22.2747 27.163 24.7413 24.4297 26.6747C21.763 28.5413 18.663 29.4747 15.1297 29.4747C10.863 29.408 7.39635 28.1413 4.72969 25.6747C2.06302 23.1413 0.729688 19.6747 0.729688 15.2747C0.729688 10.8747 2.12969 7.408 4.92969 4.87467C7.72969 2.27467 11.263 0.974669 15.5297 0.974669C18.863 0.974669 21.7297 1.908 24.1297 3.77467C26.5964 5.57467 29.0964 8.14133 31.6297 11.4747C33.363 8.408 35.5964 5.908 38.3297 3.97467C41.1297 1.97467 44.2964 0.974669 47.8297 0.974669ZM15.6297 24.1747C18.0964 24.1747 20.4297 23.3747 22.6297 21.7747C24.8297 20.1747 26.663 18.0413 28.1297 15.3747C25.7964 12.308 23.7297 10.008 21.9297 8.47467C20.1297 6.94133 18.0964 6.17467 15.8297 6.17467C13.0297 6.17467 10.7964 7.008 9.12969 8.67467C7.52969 10.3413 6.72969 12.5413 6.72969 15.2747C6.72969 18.008 7.49635 20.1747 9.02969 21.7747C10.6297 23.3747 12.8297 24.1747 15.6297 24.1747ZM47.1297 24.2747C49.9297 24.2747 52.1297 23.4413 53.7297 21.7747C55.3964 20.108 56.2297 17.908 56.2297 15.1747C56.2297 12.4413 55.4297 10.2747 53.8297 8.67467C52.2964 7.07467 50.1297 6.27467 47.3297 6.27467C44.7964 6.27467 42.4297 7.108 40.2297 8.77467C38.0297 10.4413 36.163 12.6747 34.6297 15.4747C36.8297 18.3413 38.863 20.5413 40.7297 22.0747C42.5964 23.5413 44.7297 24.2747 47.1297 24.2747Z" fill="white"/>
</svg>
