<svg width="106" height="66" viewBox="0 0 106 66" fill="none" xmlns="http://www.w3.org/2000/svg">
<rect x="0.25" y="0.25" width="105" height="65" rx="5" fill="white"/>
<rect x="1.75" y="2" width="102" height="62" rx="3.5" stroke="black" stroke-width="3"/>
<rect x="1.75" y="2" width="102" height="13" rx="3.5" stroke="black" stroke-width="3"/>
<circle cx="97.25" cy="8.5" r="2" fill="black"/>
<circle cx="91.25" cy="8.5" r="2" fill="black"/>
<circle cx="85.25" cy="8.5" r="2" fill="black"/>
<circle cx="52.75" cy="39.4264" r="15" fill="black"/>
<path d="M61.6545 37.45H60.5943C60.3973 36.6817 60.0897 35.9621 59.6886 35.3039L60.4508 34.54C60.6566 34.3342 60.7697 34.0597 60.7697 33.7682C60.7697 33.4771 60.6557 33.2022 60.4508 32.9968L59.1804 31.7278C58.7684 31.3154 58.0484 31.3158 57.6382 31.7274L56.8438 32.517C56.193 32.1376 55.4951 31.8453 54.7264 31.6573V30.5227C54.7264 29.9211 54.2457 29.4264 53.644 29.4264H51.8481C51.2465 29.4264 50.7731 29.9211 50.7731 30.5227V31.6569C50.0049 31.8444 49.3027 32.1372 48.651 32.517L47.857 31.7274C47.4455 31.3149 46.725 31.3154 46.3122 31.7269L45.0427 32.996C44.8391 33.1991 44.7229 33.4802 44.7229 33.7673C44.7229 34.0584 44.8356 34.3324 45.0418 34.5382L45.804 35.3039C45.4034 35.9621 45.0953 36.6817 44.8987 37.45H43.8381C43.2359 37.45 42.75 37.9338 42.75 38.5341V40.3287C42.75 40.9308 43.2359 41.4037 43.8381 41.4037H44.8987C45.0953 42.172 45.4029 42.8959 45.8032 43.5541L45.041 44.3211C44.8347 44.5269 44.7216 44.8023 44.7216 45.0938C44.7216 45.3853 44.8352 45.6606 45.041 45.8664L46.3113 47.1363C46.5175 47.3421 46.7912 47.4552 47.0822 47.4552C47.3732 47.4552 47.6473 47.3417 47.8535 47.1363L48.651 46.3463C49.3027 46.7261 50.0049 47.0184 50.7731 47.2068V48.3397C50.7731 48.9413 51.2465 49.4264 51.8481 49.4264H53.644C54.2457 49.4264 54.7264 48.9413 54.7264 48.3397V47.2064C55.4951 47.0184 56.193 46.7261 56.8447 46.3463L57.6351 47.1346C57.8414 47.3412 58.1154 47.4543 58.4074 47.4543C58.6988 47.4543 58.9734 47.3408 59.1791 47.1354L60.4495 45.8664C60.6552 45.6611 60.7679 45.3866 60.7688 45.0955C60.7688 44.804 60.6548 44.5304 60.4495 44.3242L59.6881 43.5541C60.0884 42.8955 60.396 42.1711 60.593 41.4037H61.6537C62.2554 41.4037 62.75 40.9308 62.75 40.3287V38.5341C62.7504 37.9338 62.2562 37.45 61.6545 37.45ZM52.7456 42.8476C50.841 42.8476 49.2966 41.3176 49.2966 39.4316C49.2966 37.5444 50.841 36.0165 52.7456 36.0165C54.6507 36.0165 56.196 37.5444 56.196 39.4316C56.1956 41.318 54.6507 42.8476 52.7456 42.8476Z" fill="white"/>
</svg>
