<svg width="106" height="66" viewBox="0 0 106 66" fill="none" xmlns="http://www.w3.org/2000/svg">
<rect x="1.75" y="2.42599" width="102" height="62" rx="3.5" stroke="black" stroke-width="3"/>
<rect x="1.75" y="2.42599" width="102" height="13" rx="3.5" stroke="black" stroke-width="3"/>
<circle cx="97.25" cy="8.92599" r="2" fill="black"/>
<circle cx="91.25" cy="8.92599" r="2" fill="black"/>
<circle cx="85.25" cy="8.92599" r="2" fill="black"/>
<path fill-rule="evenodd" clip-rule="evenodd" d="M52.75 54.8524C61.0343 54.8524 67.75 48.1367 67.75 39.8524C67.75 31.5681 61.0343 24.8524 52.75 24.8524C44.4657 24.8524 37.75 31.5681 37.75 39.8524C37.75 48.1367 44.4657 54.8524 52.75 54.8524ZM52.75 32.2269C55.8791 32.2269 58.4585 34.5793 58.8168 37.612C60.989 37.612 62.75 39.3729 62.75 41.545C62.75 43.7171 60.9892 45.4779 58.8171 45.4779H46.6829C44.5108 45.4779 42.75 43.7171 42.75 41.545C42.75 39.3729 44.511 37.612 46.6832 37.612C47.0415 34.5793 49.6209 32.2269 52.75 32.2269Z" fill="black"/>
</svg>
