<svg width="106" height="66" viewBox="0 0 106 66" fill="none" xmlns="http://www.w3.org/2000/svg">
<rect x="1.75" y="2.42599" width="102" height="62" rx="3.5" stroke="black" stroke-width="3"/>
<rect x="1.75" y="2.42599" width="102" height="13" rx="3.5" stroke="black" stroke-width="3"/>
<circle cx="97.25" cy="8.92599" r="2" fill="black"/>
<circle cx="91.25" cy="8.92599" r="2" fill="black"/>
<circle cx="85.25" cy="8.92599" r="2" fill="black"/>
<path fill-rule="evenodd" clip-rule="evenodd" d="M67.75 39.8524C67.75 48.1367 61.0343 54.8524 52.75 54.8524C44.4657 54.8524 37.75 48.1367 37.75 39.8524C37.75 31.5681 44.4657 24.8524 52.75 24.8524C61.0343 24.8524 67.75 31.5681 67.75 39.8524ZM52.7481 40.7574C49.2287 40.7574 46.2794 39.6542 45.4742 38.1668C45.3326 38.4286 45.25 38.7007 45.25 38.983V41.417C45.25 43.2974 48.608 44.823 52.7481 44.823C56.8907 44.823 60.25 43.2974 60.25 41.417V38.983C60.25 38.7007 60.1661 38.4286 60.0232 38.1668C59.218 39.6535 56.2713 40.7574 52.7481 40.7574ZM45.4742 43.1962C46.2794 44.6808 49.2287 45.7854 52.7481 45.7854C56.2713 45.7854 59.218 44.6808 60.0232 43.1969C60.1661 43.4566 60.25 43.7287 60.25 44.0103V46.4464C60.25 48.3281 56.8907 49.8524 52.7481 49.8524C48.608 49.8524 45.25 48.3275 45.25 46.4464V44.0103C45.25 43.7287 45.3326 43.4566 45.4742 43.1962ZM60.045 33.2988C59.8977 34.6767 56.6935 35.7793 52.7481 35.7793C48.8046 35.7793 45.6004 34.6767 45.4537 33.2994C45.325 33.5496 45.25 33.8107 45.25 34.0793V36.5134C45.25 38.3944 48.608 39.9194 52.7481 39.9194C56.8907 39.9194 60.25 38.3951 60.25 36.5134V34.0793C60.25 33.8107 60.1738 33.5496 60.045 33.2988ZM60.0572 32.4293C60.0572 33.8538 56.7857 35.0069 52.7481 35.0069C48.7131 35.0069 45.4403 33.8538 45.4403 32.43C45.4403 31.0069 48.7131 29.8531 52.7481 29.8524C56.7857 29.8524 60.0572 31.0062 60.0572 32.4293Z" fill="black"/>
</svg>
