<svg width="31" height="31" viewBox="0 0 31 31" fill="none" xmlns="http://www.w3.org/2000/svg">
<circle cx="15.75" cy="15.8524" r="14.5" fill="white" stroke="black"/>
<path d="M15.7481 16.7574C12.2287 16.7574 9.27942 15.6542 8.47421 14.1668C8.33264 14.4286 8.25 14.7007 8.25 14.983V17.417C8.25 19.2974 11.608 20.823 15.7481 20.823C19.8908 20.823 23.25 19.2974 23.25 17.417V14.983C23.25 14.7007 23.1661 14.4286 23.0232 14.1668C22.218 15.6535 19.2713 16.7574 15.7481 16.7574Z" fill="black"/>
<path d="M15.7481 21.7854C12.2287 21.7854 9.27942 20.6808 8.47421 19.1962C8.33264 19.4566 8.25 19.7287 8.25 20.0103V22.4464C8.25 24.3275 11.608 25.8524 15.7481 25.8524C19.8908 25.8524 23.25 24.3281 23.25 22.4464V20.0103C23.25 19.7287 23.1661 19.4566 23.0232 19.1969C22.218 20.6808 19.2713 21.7854 15.7481 21.7854Z" fill="black"/>
<path d="M23.045 9.29875C22.8977 10.6767 19.6935 11.7793 15.7481 11.7793C11.8046 11.7793 8.6004 10.6767 8.45371 9.29944C8.32495 9.54961 8.25 9.81071 8.25 10.0793V12.5134C8.25 14.3944 11.608 15.9194 15.7481 15.9194C19.8908 15.9194 23.25 14.3951 23.25 12.5134V10.0793C23.25 9.81071 23.1738 9.54961 23.045 9.29875Z" fill="black"/>
<path d="M15.7481 11.0069C19.7858 11.0069 23.0572 9.85377 23.0572 8.4293C23.0572 7.0062 19.7858 5.8524 15.7481 5.8524C11.7131 5.85309 8.44031 7.00688 8.44031 8.42998C8.44031 9.85377 11.7131 11.0069 15.7481 11.0069Z" fill="black"/>
</svg>
