<svg width="106" height="66" viewBox="0 0 106 66" fill="none" xmlns="http://www.w3.org/2000/svg">
<rect x="0.25" y="0.25" width="105" height="65" rx="5" fill="white"/>
<rect x="1.75" y="1.75" width="102" height="62" rx="3.5" stroke="black" stroke-width="3"/>
<rect x="1.75" y="1.75" width="102" height="13" rx="3.5" stroke="black" stroke-width="3"/>
<circle cx="97.25" cy="8.25" r="2" fill="black"/>
<circle cx="91.25" cy="8.25" r="2" fill="black"/>
<circle cx="85.25" cy="8.25" r="2" fill="black"/>
<circle cx="52.75" cy="39.1764" r="15" fill="black"/>
<g clip-path="url(#clip0_8_236)">
<path d="M47.3966 41.7009C47.3203 41.6247 47.2087 41.5942 47.1063 41.6281C46.5853 41.8003 46.0768 42.1068 45.6402 42.5434C44.5207 43.663 44.5415 45.7988 44.223 47.3325C44.174 47.5683 44.3969 47.7943 44.633 47.7467C46.1354 47.444 48.267 47.402 49.3829 46.2861C49.8195 45.8495 50.1261 45.3412 50.2983 44.8201C50.3321 44.7177 50.3017 44.6061 50.2254 44.5299L47.3966 41.7009Z" fill="white"/>
<path d="M62.2987 29.6277C61.7176 29.0467 60.7827 29.0238 60.174 29.5759L51.5918 37.3584C50.9873 37.9067 50.3962 38.4695 49.8191 39.0466L48.1906 40.6751L51.2513 43.7358L52.8798 42.1073C53.4568 41.5302 54.0198 40.9391 54.5679 40.3346L62.3505 31.7524C62.9026 31.1437 62.8798 30.2088 62.2987 29.6277Z" fill="white"/>
</g>
<defs>
<clipPath id="clip0_8_236">
<rect width="20" height="20" fill="white" transform="translate(42.75 29.1764)"/>
</clipPath>
</defs>
</svg>
