<svg width="106" height="66" viewBox="0 0 106 66" fill="none" xmlns="http://www.w3.org/2000/svg">
<rect x="1.75" y="1.75" width="102" height="62" rx="3.5" stroke="black" stroke-width="3"/>
<rect x="1.75" y="1.75" width="102" height="13" rx="3.5" stroke="black" stroke-width="3"/>
<circle cx="97.25" cy="8.25" r="2" fill="black"/>
<circle cx="91.25" cy="8.25" r="2" fill="black"/>
<circle cx="85.25" cy="8.25" r="2" fill="black"/>
<path fill-rule="evenodd" clip-rule="evenodd" d="M67.75 39.1764C67.75 47.4607 61.0343 54.1764 52.75 54.1764C44.4657 54.1764 37.75 47.4607 37.75 39.1764C37.75 30.8921 44.4657 24.1764 52.75 24.1764C61.0343 24.1764 67.75 30.8921 67.75 39.1764ZM47.3965 41.7009C47.3203 41.6247 47.2087 41.5942 47.1063 41.6281C46.5853 41.8003 46.0768 42.1068 45.6402 42.5434C44.7986 43.3851 44.6014 44.8012 44.4201 46.104L44.4199 46.105C44.3601 46.5348 44.302 46.9522 44.223 47.3325C44.174 47.5683 44.3969 47.7943 44.633 47.7467C44.97 47.6788 45.3387 47.624 45.7205 47.5673C47.0406 47.3711 48.5173 47.1517 49.3829 46.2861C49.8195 45.8495 50.1261 45.3412 50.2983 44.8201C50.3321 44.7177 50.3017 44.6061 50.2254 44.5299L47.3965 41.7009ZM60.174 29.5759C60.7827 29.0238 61.7176 29.0467 62.2987 29.6277C62.8798 30.2088 62.9026 31.1437 62.3506 31.7524L54.5679 40.3346C54.0198 40.9391 53.4568 41.5302 52.8798 42.1073L51.2513 43.7358L48.1906 40.6751L49.8192 39.0466C50.3962 38.4695 50.9873 37.9067 51.5918 37.3584L60.174 29.5759Z" fill="black"/>
</svg>
