<svg width="31" height="31" viewBox="0 0 31 31" fill="none" xmlns="http://www.w3.org/2000/svg">
<circle cx="15.75" cy="15.9264" r="14.5" fill="white" stroke="black"/>
<path fill-rule="evenodd" clip-rule="evenodd" d="M8.05 8.92641C7.88431 8.92641 7.75 9.06072 7.75 9.22641V16.0931C7.75 16.2588 7.88431 16.3931 8.05 16.3931H11.3833C11.4938 16.3931 11.5833 16.3035 11.5833 16.1931V12.2064C11.5833 12.0959 11.6729 12.0064 11.7833 12.0064H15.55C15.6605 12.0064 15.75 11.9169 15.75 11.8064V9.22641C15.75 9.06072 15.6157 8.92641 15.45 8.92641H8.05Z" fill="black"/>
<path fill-rule="evenodd" clip-rule="evenodd" d="M19.75 12.4931C19.75 12.3274 19.6157 12.1931 19.45 12.1931H12.05C11.8843 12.1931 11.75 12.3274 11.75 12.4931V19.3597C11.75 19.5254 11.8843 19.6597 12.05 19.6597H15.2833C15.449 19.6597 15.5833 19.5254 15.5833 19.3597V15.5731C15.5833 15.4074 15.7176 15.2731 15.8833 15.2731H19.45C19.6157 15.2731 19.75 15.1388 19.75 14.9731V12.4931Z" fill="black"/>
<path d="M15.75 15.7597C15.75 15.5941 15.8843 15.4597 16.05 15.4597H23.45C23.6157 15.4597 23.75 15.5941 23.75 15.7597V22.6264C23.75 22.7921 23.6157 22.9264 23.45 22.9264H16.05C15.8843 22.9264 15.75 22.7921 15.75 22.6264V15.7597Z" fill="black"/>
</svg>
