<svg width="395" height="107" viewBox="0 0 395 107" fill="none" xmlns="http://www.w3.org/2000/svg">
<path d="M36.8648 18.29C35.8208 16.2793 34.3708 14.7713 32.5148 13.766C30.6588 12.722 28.5128 12.2 26.0768 12.2C23.4088 12.2 21.0308 12.7993 18.9428 13.998C16.8548 15.1967 15.2115 16.898 14.0128 19.102C12.8528 21.306 12.2728 23.858 12.2728 26.758C12.2728 29.658 12.8528 32.2293 14.0128 34.472C15.2115 36.676 16.8548 38.3773 18.9428 39.576C21.0308 40.7747 23.4088 41.374 26.0768 41.374C29.6728 41.374 32.5922 40.3687 34.8348 38.358C37.0775 36.3473 38.4502 33.6213 38.9528 30.18H23.8148V24.902H46.0288V30.064C45.6035 33.196 44.4822 36.0767 42.6648 38.706C40.8862 41.3353 38.5468 43.4427 35.6468 45.028C32.7855 46.5747 29.5955 47.348 26.0768 47.348C22.2875 47.348 18.8268 46.478 15.6948 44.738C12.5628 42.9593 10.0688 40.504 8.21282 37.372C6.39549 34.24 5.48682 30.702 5.48682 26.758C5.48682 22.814 6.39549 19.276 8.21282 16.144C10.0688 13.012 12.5628 10.576 15.6948 8.836C18.8655 7.05733 22.3262 6.168 26.0768 6.168C30.3688 6.168 34.1775 7.23133 37.5028 9.358C40.8668 11.446 43.3028 14.4233 44.8108 18.29H36.8648ZM45.3462 30.876C45.3462 27.6667 46.0035 24.8247 47.3182 22.35C48.6715 19.8753 50.4889 17.9613 52.7702 16.608C55.0902 15.216 57.6422 14.52 60.4262 14.52C62.9395 14.52 65.1242 15.0227 66.9802 16.028C68.8749 16.9947 70.3829 18.2127 71.5042 19.682V15.042H78.1742V47H71.5042V42.244C70.3829 43.752 68.8555 45.0087 66.9222 46.014C64.9889 47.0193 62.7849 47.522 60.3102 47.522C57.5649 47.522 55.0515 46.826 52.7702 45.434C50.4889 44.0033 48.6715 42.0313 47.3182 39.518C46.0035 36.966 45.3462 34.0853 45.3462 30.876ZM71.5042 30.992C71.5042 28.788 71.0402 26.874 70.1122 25.25C69.2229 23.626 68.0435 22.3887 66.5742 21.538C65.1049 20.6873 63.5195 20.262 61.8182 20.262C60.1169 20.262 58.5315 20.6873 57.0622 21.538C55.5929 22.35 54.3942 23.568 53.4662 25.192C52.5769 26.7773 52.1322 28.672 52.1322 30.876C52.1322 33.08 52.5769 35.0133 53.4662 36.676C54.3942 38.3387 55.5929 39.6147 57.0622 40.504C58.5702 41.3547 60.1555 41.78 61.8182 41.78C63.5195 41.78 65.1049 41.3547 66.5742 40.504C68.0435 39.6533 69.2229 38.416 70.1122 36.792C71.0402 35.1293 71.5042 33.196 71.5042 30.992ZM88.4708 19.798C89.5921 18.2513 91.1195 16.9947 93.0528 16.028C95.0248 15.0227 97.2095 14.52 99.6068 14.52C102.429 14.52 104.981 15.1967 107.263 16.55C109.544 17.9033 111.342 19.8367 112.657 22.35C113.971 24.8247 114.629 27.6667 114.629 30.876C114.629 34.0853 113.971 36.966 112.657 39.518C111.342 42.0313 109.525 44.0033 107.205 45.434C104.923 46.826 102.391 47.522 99.6068 47.522C97.1321 47.522 94.9281 47.0387 92.9948 46.072C91.1001 45.1053 89.5921 43.868 88.4708 42.36V47H81.8588V4.08H88.4708V19.798ZM107.901 30.876C107.901 28.672 107.437 26.7773 106.509 25.192C105.619 23.568 104.421 22.35 102.913 21.538C101.443 20.6873 99.8581 20.262 98.1568 20.262C96.4941 20.262 94.9088 20.6873 93.4008 21.538C91.9315 22.3887 90.7328 23.626 89.8048 25.25C88.9155 26.874 88.4708 28.788 88.4708 30.992C88.4708 33.196 88.9155 35.1293 89.8048 36.792C90.7328 38.416 91.9315 39.6533 93.4008 40.504C94.9088 41.3547 96.4941 41.78 98.1568 41.78C99.8581 41.78 101.443 41.3547 102.913 40.504C104.421 39.6147 105.619 38.3387 106.509 36.676C107.437 35.0133 107.901 33.08 107.901 30.876ZM122.779 19.682C123.746 18.058 125.022 16.8013 126.607 15.912C128.231 14.984 130.145 14.52 132.349 14.52V21.364H130.667C128.077 21.364 126.105 22.0213 124.751 23.336C123.437 24.6507 122.779 26.932 122.779 30.18V47H116.167V15.042H122.779V19.682ZM136.791 10.808C135.592 10.808 134.587 10.402 133.775 9.59C132.963 8.778 132.557 7.77267 132.557 6.574C132.557 5.37533 132.963 4.37 133.775 3.558C134.587 2.746 135.592 2.34 136.791 2.34C137.951 2.34 138.937 2.746 139.749 3.558C140.561 4.37 140.967 5.37533 140.967 6.574C140.967 7.77267 140.561 8.778 139.749 9.59C138.937 10.402 137.951 10.808 136.791 10.808ZM140.039 15.042V47H133.427V15.042H140.039ZM173.01 30.238C173.01 31.4367 172.933 32.5193 172.778 33.486H148.36C148.553 36.038 149.501 38.0873 151.202 39.634C152.903 41.1807 154.991 41.954 157.466 41.954C161.023 41.954 163.537 40.4653 165.006 37.488H172.14C171.173 40.4267 169.414 42.8433 166.862 44.738C164.349 46.594 161.217 47.522 157.466 47.522C154.411 47.522 151.666 46.8453 149.23 45.492C146.833 44.1 144.938 42.1667 143.546 39.692C142.193 37.1787 141.516 34.2787 141.516 30.992C141.516 27.7053 142.173 24.8247 143.488 22.35C144.841 19.8367 146.717 17.9033 149.114 16.55C151.55 15.1967 154.334 14.52 157.466 14.52C160.482 14.52 163.169 15.1773 165.528 16.492C167.887 17.8067 169.723 19.6627 171.038 22.06C172.353 24.4187 173.01 27.1447 173.01 30.238ZM166.108 28.15C166.069 25.714 165.199 23.7613 163.498 22.292C161.797 20.8227 159.689 20.088 157.176 20.088C154.895 20.088 152.942 20.8227 151.318 22.292C149.694 23.7227 148.727 25.6753 148.418 28.15H166.108ZM181.129 4.08V47H174.517V4.08H181.129Z" fill="#333333"/>
<path d="M213.378 47.406C209.55 47.406 206.032 46.5167 202.822 44.738C199.652 42.9593 197.119 40.4847 195.224 37.314C193.368 34.1047 192.44 30.5087 192.44 26.526C192.44 22.5433 193.368 18.9667 195.224 15.796C197.119 12.6253 199.652 10.1507 202.822 8.372C206.032 6.59333 209.55 5.704 213.378 5.704C217.206 5.704 220.706 6.59333 223.876 8.372C227.086 10.1507 229.599 12.6253 231.416 15.796C233.272 18.9667 234.2 22.5433 234.2 26.526C234.2 30.5087 233.272 34.1047 231.416 37.314C229.56 40.4847 227.047 42.9593 223.876 44.738C220.706 46.5167 217.206 47.406 213.378 47.406ZM213.378 38.358C216.626 38.358 219.217 37.2753 221.15 35.11C223.122 32.9447 224.108 30.0833 224.108 26.526C224.108 22.93 223.122 20.0687 221.15 17.942C219.217 15.7767 216.626 14.694 213.378 14.694C210.092 14.694 207.462 15.7573 205.49 17.884C203.557 20.0107 202.59 22.8913 202.59 26.526C202.59 30.122 203.557 33.0027 205.49 35.168C207.462 37.2947 210.092 38.358 213.378 38.358ZM244.636 4.08V47H234.718V4.08H244.636ZM251.812 11.272C250.072 11.272 248.641 10.7693 247.52 9.764C246.437 8.72 245.896 7.444 245.896 5.936C245.896 4.38933 246.437 3.11333 247.52 2.108C248.641 1.064 250.072 0.541997 251.812 0.541997C253.513 0.541997 254.905 1.064 255.988 2.108C257.109 3.11333 257.67 4.38933 257.67 5.936C257.67 7.444 257.109 8.72 255.988 9.764C254.905 10.7693 253.513 11.272 251.812 11.272ZM256.742 14.636V47H246.824V14.636H256.742ZM273.487 37.72L280.505 14.636H291.061L279.577 47H267.339L255.855 14.636H266.469L273.487 37.72ZM320.744 30.296C320.744 31.224 320.686 32.1907 320.57 33.196H298.124C298.278 35.2067 298.916 36.7533 300.038 37.836C301.198 38.88 302.609 39.402 304.272 39.402C306.746 39.402 308.467 38.358 309.434 36.27H319.99C319.448 38.3967 318.462 40.3107 317.032 42.012C315.64 43.7133 313.88 45.0473 311.754 46.014C309.627 46.9807 307.249 47.464 304.62 47.464C301.449 47.464 298.626 46.7873 296.152 45.434C293.677 44.0807 291.744 42.1473 290.352 39.634C288.96 37.1207 288.264 34.182 288.264 30.818C288.264 27.454 288.94 24.5153 290.294 22.002C291.686 19.4887 293.619 17.5553 296.094 16.202C298.568 14.8487 301.41 14.172 304.62 14.172C307.752 14.172 310.536 14.8293 312.972 16.144C315.408 17.4587 317.302 19.334 318.656 21.77C320.048 24.206 320.744 27.048 320.744 30.296ZM310.594 27.686C310.594 25.9847 310.014 24.6313 308.854 23.626C307.694 22.6207 306.244 22.118 304.504 22.118C302.841 22.118 301.43 22.6013 300.27 23.568C299.148 24.5347 298.452 25.9073 298.182 27.686H310.594ZM325.964 11.272C324.224 11.272 322.793 10.7693 321.672 9.764C320.589 8.72 320.048 7.444 320.048 5.936C320.048 4.38933 320.589 3.11333 321.672 2.108C322.793 1.064 324.224 0.541997 325.964 0.541997C327.665 0.541997 329.057 1.064 330.14 2.108C331.261 3.11333 331.822 4.38933 331.822 5.936C331.822 7.444 331.261 8.72 330.14 9.764C329.057 10.7693 327.665 11.272 325.964 11.272ZM330.894 14.636V47H320.976V14.636H330.894ZM342.999 20.03C344.159 18.2513 345.609 16.8593 347.349 15.854C349.089 14.81 351.023 14.288 353.149 14.288V24.786H350.423C347.949 24.786 346.093 25.3273 344.855 26.41C343.618 27.454 342.999 29.31 342.999 31.978V47H333.081V14.636H342.999V20.03ZM350.918 30.76C350.918 27.4347 351.537 24.5153 352.774 22.002C354.05 19.4887 355.771 17.5553 357.936 16.202C360.101 14.8487 362.518 14.172 365.186 14.172C367.467 14.172 369.459 14.636 371.16 15.564C372.9 16.492 374.234 17.71 375.162 19.218V14.636H385.08V47H375.162V42.418C374.195 43.926 372.842 45.144 371.102 46.072C369.401 47 367.409 47.464 365.128 47.464C362.499 47.464 360.101 46.7873 357.936 45.434C355.771 44.042 354.05 42.0893 352.774 39.576C351.537 37.024 350.918 34.0853 350.918 30.76ZM375.162 30.818C375.162 28.3433 374.466 26.3907 373.074 24.96C371.721 23.5293 370.058 22.814 368.086 22.814C366.114 22.814 364.432 23.5293 363.04 24.96C361.687 26.352 361.01 28.2853 361.01 30.76C361.01 33.2347 361.687 35.2067 363.04 36.676C364.432 38.1067 366.114 38.822 368.086 38.822C370.058 38.822 371.721 38.1067 373.074 36.676C374.466 35.2453 375.162 33.2927 375.162 30.818Z" fill="#85FFE9"/>
<path d="M15.975 81.0618V84.4868H8.825V88.1868H14.175V91.5118H8.825V98.6118H4.55V81.0618H15.975ZM24.6719 98.6118L21.0219 91.9868H19.9969V98.6118H15.7219V81.0618H22.8969C24.2802 81.0618 25.4552 81.3034 26.4219 81.7868C27.4052 82.2701 28.1385 82.9368 28.6219 83.7868C29.1052 84.6201 29.3469 85.5534 29.3469 86.5868C29.3469 87.7534 29.0135 88.7951 28.3469 89.7118C27.6969 90.6284 26.7302 91.2784 25.4469 91.6618L29.4969 98.6118H24.6719ZM19.9969 88.9618H22.6469C23.4302 88.9618 24.0135 88.7701 24.3969 88.3868C24.7969 88.0034 24.9969 87.4618 24.9969 86.7618C24.9969 86.0951 24.7969 85.5701 24.3969 85.1868C24.0135 84.8034 23.4302 84.6118 22.6469 84.6118H19.9969V88.9618ZM37.8305 98.7868C36.1805 98.7868 34.6638 98.4034 33.2805 97.6368C31.9138 96.8701 30.8221 95.8034 30.0055 94.4368C29.2055 93.0534 28.8055 91.5034 28.8055 89.7868C28.8055 88.0701 29.2055 86.5284 30.0055 85.1618C30.8221 83.7951 31.9138 82.7284 33.2805 81.9618C34.6638 81.1951 36.1805 80.8118 37.8305 80.8118C39.4805 80.8118 40.9888 81.1951 42.3555 81.9618C43.7388 82.7284 44.8221 83.7951 45.6055 85.1618C46.4055 86.5284 46.8055 88.0701 46.8055 89.7868C46.8055 91.5034 46.4055 93.0534 45.6055 94.4368C44.8055 95.8034 43.7221 96.8701 42.3555 97.6368C40.9888 98.4034 39.4805 98.7868 37.8305 98.7868ZM37.8305 94.8868C39.2305 94.8868 40.3471 94.4201 41.1805 93.4868C42.0305 92.5534 42.4555 91.3201 42.4555 89.7868C42.4555 88.2368 42.0305 87.0034 41.1805 86.0868C40.3471 85.1534 39.2305 84.6868 37.8305 84.6868C36.4138 84.6868 35.2805 85.1451 34.4305 86.0618C33.5971 86.9784 33.1805 88.2201 33.1805 89.7868C33.1805 91.3368 33.5971 92.5784 34.4305 93.5118C35.2805 94.4284 36.4138 94.8868 37.8305 94.8868ZM62.3838 98.6118H58.1088L50.9588 87.7868V98.6118H46.6838V81.0618H50.9588L58.1088 91.9368V81.0618H62.3838V98.6118ZM75.6076 81.0618V84.4868H70.9576V98.6118H66.6826V84.4868H62.0326V81.0618H75.6076ZM86.0031 88.0618V91.6118H75.0031V88.0618H86.0031ZM91.5301 84.4868V88.0368H97.2551V91.3368H91.5301V95.1868H98.0051V98.6118H87.2551V81.0618H98.0051V84.4868H91.5301ZM113.98 98.6118H109.705L102.555 87.7868V98.6118H98.2805V81.0618H102.555L109.705 91.9368V81.0618H113.98V98.6118ZM121.154 81.0618C123.004 81.0618 124.621 81.4284 126.004 82.1618C127.388 82.8951 128.454 83.9284 129.204 85.2618C129.971 86.5784 130.354 88.1034 130.354 89.8368C130.354 91.5534 129.971 93.0784 129.204 94.4118C128.454 95.7451 127.379 96.7784 125.979 97.5118C124.596 98.2451 122.988 98.6118 121.154 98.6118H114.579V81.0618H121.154ZM120.879 94.9118C122.496 94.9118 123.754 94.4701 124.654 93.5868C125.554 92.7034 126.004 91.4534 126.004 89.8368C126.004 88.2201 125.554 86.9618 124.654 86.0618C123.754 85.1618 122.496 84.7118 120.879 84.7118H118.854V94.9118H120.879ZM146.466 98.6118L144.841 97.0368C143.225 98.2701 141.291 98.8868 139.041 98.8868C137.691 98.8868 136.516 98.6701 135.516 98.2368C134.516 97.7868 133.741 97.1618 133.191 96.3618C132.658 95.5451 132.391 94.5951 132.391 93.5118C132.391 92.4118 132.683 91.4201 133.266 90.5368C133.866 89.6368 134.758 88.9034 135.941 88.3368C135.508 87.8034 135.2 87.2951 135.016 86.8118C134.833 86.3118 134.741 85.7701 134.741 85.1868C134.741 84.3534 134.958 83.5951 135.391 82.9118C135.825 82.2284 136.45 81.6951 137.266 81.3118C138.1 80.9118 139.083 80.7118 140.216 80.7118C141.366 80.7118 142.341 80.9201 143.141 81.3368C143.941 81.7534 144.541 82.3118 144.941 83.0118C145.341 83.7118 145.525 84.4784 145.491 85.3118H141.466C141.483 84.8618 141.366 84.5201 141.116 84.2868C140.883 84.0368 140.566 83.9118 140.166 83.9118C139.766 83.9118 139.433 84.0284 139.166 84.2618C138.9 84.4951 138.766 84.7951 138.766 85.1618C138.766 85.5118 138.875 85.8784 139.091 86.2618C139.325 86.6451 139.683 87.0868 140.166 87.5868L144.441 91.7618C144.475 91.6784 144.516 91.5784 144.566 91.4618C144.633 91.3451 144.7 91.2118 144.766 91.0618L145.691 89.4868H149.966L148.766 91.6618C148.316 92.6451 147.8 93.5784 147.216 94.4618L151.441 98.6118H146.466ZM139.241 95.4368C140.358 95.4368 141.35 95.1201 142.216 94.4868L138.316 90.7118C137.116 91.3284 136.516 92.1618 136.516 93.2118C136.516 93.8451 136.758 94.3784 137.241 94.8118C137.741 95.2284 138.408 95.4368 139.241 95.4368ZM163.91 89.6118C164.927 89.8284 165.744 90.3368 166.36 91.1368C166.977 91.9201 167.285 92.8201 167.285 93.8368C167.285 95.3034 166.769 96.4701 165.735 97.3368C164.719 98.1868 163.294 98.6118 161.46 98.6118H153.285V81.0618H161.185C162.969 81.0618 164.36 81.4701 165.36 82.2868C166.377 83.1034 166.885 84.2118 166.885 85.6118C166.885 86.6451 166.61 87.5034 166.06 88.1868C165.527 88.8701 164.81 89.3451 163.91 89.6118ZM157.56 88.1618H160.36C161.06 88.1618 161.594 88.0118 161.96 87.7118C162.344 87.3951 162.535 86.9368 162.535 86.3368C162.535 85.7368 162.344 85.2784 161.96 84.9618C161.594 84.6451 161.06 84.4868 160.36 84.4868H157.56V88.1618ZM160.71 95.1618C161.427 95.1618 161.977 95.0034 162.36 94.6868C162.76 94.3534 162.96 93.8784 162.96 93.2618C162.96 92.6451 162.752 92.1618 162.335 91.8118C161.935 91.4618 161.377 91.2868 160.66 91.2868H157.56V95.1618H160.71ZM178.19 95.5118H171.64L170.59 98.6118H166.115L172.465 81.0618H177.415L183.765 98.6118H179.24L178.19 95.5118ZM177.09 92.2118L174.915 85.7868L172.765 92.2118H177.09ZM182.472 89.8118C182.472 88.0784 182.847 86.5368 183.597 85.1868C184.347 83.8201 185.389 82.7618 186.722 82.0118C188.072 81.2451 189.597 80.8618 191.297 80.8618C193.381 80.8618 195.164 81.4118 196.647 82.5118C198.131 83.6118 199.122 85.1118 199.622 87.0118H194.922C194.572 86.2784 194.072 85.7201 193.422 85.3368C192.789 84.9534 192.064 84.7618 191.247 84.7618C189.931 84.7618 188.864 85.2201 188.047 86.1368C187.231 87.0534 186.822 88.2784 186.822 89.8118C186.822 91.3451 187.231 92.5701 188.047 93.4868C188.864 94.4034 189.931 94.8618 191.247 94.8618C192.064 94.8618 192.789 94.6701 193.422 94.2868C194.072 93.9034 194.572 93.3451 194.922 92.6118H199.622C199.122 94.5118 198.131 96.0118 196.647 97.1118C195.164 98.1951 193.381 98.7368 191.297 98.7368C189.597 98.7368 188.072 98.3618 186.722 97.6118C185.389 96.8451 184.347 95.7868 183.597 94.4368C182.847 93.0868 182.472 91.5451 182.472 89.8118ZM209.915 98.6118L204.015 90.8618V98.6118H199.74V81.0618H204.015V88.7618L209.865 81.0618H214.89L208.09 89.6618L215.14 98.6118H209.915ZM225.422 88.0618V91.6118H214.422V88.0618H225.422ZM230.949 84.4868V88.0368H236.674V91.3368H230.949V95.1868H237.424V98.6118H226.674V81.0618H237.424V84.4868H230.949ZM253.399 98.6118H249.124L241.974 87.7868V98.6118H237.699V81.0618H241.974L249.124 91.9368V81.0618H253.399V98.6118ZM260.573 81.0618C262.423 81.0618 264.04 81.4284 265.423 82.1618C266.807 82.8951 267.873 83.9284 268.623 85.2618C269.39 86.5784 269.773 88.1034 269.773 89.8368C269.773 91.5534 269.39 93.0784 268.623 94.4118C267.873 95.7451 266.798 96.7784 265.398 97.5118C264.015 98.2451 262.407 98.6118 260.573 98.6118H253.998V81.0618H260.573ZM260.298 94.9118C261.915 94.9118 263.173 94.4701 264.073 93.5868C264.973 92.7034 265.423 91.4534 265.423 89.8368C265.423 88.2201 264.973 86.9618 264.073 86.0618C263.173 85.1618 261.915 84.7118 260.298 84.7118H258.273V94.9118H260.298ZM279.035 81.0618C280.885 81.0618 282.502 81.4284 283.885 82.1618C285.268 82.8951 286.335 83.9284 287.085 85.2618C287.852 86.5784 288.235 88.1034 288.235 89.8368C288.235 91.5534 287.852 93.0784 287.085 94.4118C286.335 95.7451 285.26 96.7784 283.86 97.5118C282.477 98.2451 280.868 98.6118 279.035 98.6118H272.46V81.0618H279.035ZM278.76 94.9118C280.377 94.9118 281.635 94.4701 282.535 93.5868C283.435 92.7034 283.885 91.4534 283.885 89.8368C283.885 88.2201 283.435 86.9618 282.535 86.0618C281.635 85.1618 280.377 84.7118 278.76 84.7118H276.735V94.9118H278.76ZM292.399 84.4868V88.0368H298.124V91.3368H292.399V95.1868H298.874V98.6118H288.124V81.0618H298.874V84.4868H292.399ZM315.625 81.0618L309.4 98.6118H304.05L297.825 81.0618H302.375L306.725 94.3118L311.1 81.0618H315.625ZM319.186 84.4868V88.0368H324.911V91.3368H319.186V95.1868H325.661V98.6118H314.911V81.0618H325.661V84.4868H319.186ZM330.212 95.3118H335.812V98.6118H325.937V81.0618H330.212V95.3118ZM343.651 98.7868C342.001 98.7868 340.484 98.4034 339.101 97.6368C337.734 96.8701 336.642 95.8034 335.826 94.4368C335.026 93.0534 334.626 91.5034 334.626 89.7868C334.626 88.0701 335.026 86.5284 335.826 85.1618C336.642 83.7951 337.734 82.7284 339.101 81.9618C340.484 81.1951 342.001 80.8118 343.651 80.8118C345.301 80.8118 346.809 81.1951 348.176 81.9618C349.559 82.7284 350.642 83.7951 351.426 85.1618C352.226 86.5284 352.626 88.0701 352.626 89.7868C352.626 91.5034 352.226 93.0534 351.426 94.4368C350.626 95.8034 349.542 96.8701 348.176 97.6368C346.809 98.4034 345.301 98.7868 343.651 98.7868ZM343.651 94.8868C345.051 94.8868 346.167 94.4201 347.001 93.4868C347.851 92.5534 348.276 91.3201 348.276 89.7868C348.276 88.2368 347.851 87.0034 347.001 86.0868C346.167 85.1534 345.051 84.6868 343.651 84.6868C342.234 84.6868 341.101 85.1451 340.251 86.0618C339.417 86.9784 339.001 88.2201 339.001 89.7868C339.001 91.3368 339.417 92.5784 340.251 93.5118C341.101 94.4284 342.234 94.8868 343.651 94.8868ZM365.879 86.7118C365.879 87.7284 365.646 88.6618 365.179 89.5118C364.712 90.3451 363.996 91.0201 363.029 91.5368C362.062 92.0534 360.862 92.3118 359.429 92.3118H356.779V98.6118H352.504V81.0618H359.429C360.829 81.0618 362.012 81.3034 362.979 81.7868C363.946 82.2701 364.671 82.9368 365.154 83.7868C365.637 84.6368 365.879 85.6118 365.879 86.7118ZM359.104 88.9118C359.921 88.9118 360.529 88.7201 360.929 88.3368C361.329 87.9534 361.529 87.4118 361.529 86.7118C361.529 86.0118 361.329 85.4701 360.929 85.0868C360.529 84.7034 359.921 84.5118 359.104 84.5118H356.779V88.9118H359.104ZM369.88 84.4868V88.0368H375.605V91.3368H369.88V95.1868H376.355V98.6118H365.605V81.0618H376.355V84.4868H369.88ZM385.58 98.6118L381.93 91.9868H380.905V98.6118H376.63V81.0618H383.805C385.188 81.0618 386.363 81.3034 387.33 81.7868C388.313 82.2701 389.047 82.9368 389.53 83.7868C390.013 84.6201 390.255 85.5534 390.255 86.5868C390.255 87.7534 389.922 88.7951 389.255 89.7118C388.605 90.6284 387.638 91.2784 386.355 91.6618L390.405 98.6118H385.58ZM380.905 88.9618H383.555C384.338 88.9618 384.922 88.7701 385.305 88.3868C385.705 88.0034 385.905 87.4618 385.905 86.7618C385.905 86.0951 385.705 85.5701 385.305 85.1868C384.922 84.8034 384.338 84.6118 383.555 84.6118H380.905V88.9618Z" fill="#333333"/>
</svg>
