<svg width="62" height="29" viewBox="0 0 62 29" fill="none" xmlns="http://www.w3.org/2000/svg">
<path fill-rule="evenodd" clip-rule="evenodd" d="M47.1772 0.269989C51.3772 0.336655 54.8105 1.63665 57.4772 4.16999C60.2105 6.63665 61.5772 10.07 61.5772 14.47C61.5772 18.87 60.1772 22.37 57.3772 24.97C54.5772 27.5033 51.0438 28.77 46.7772 28.77C43.3772 28.77 40.4438 27.9033 37.9772 26.17C35.8611 24.6258 33.6959 22.5419 31.4817 19.9183L27.4641 14.6938C27.4684 14.6859 27.4728 14.6779 27.4772 14.67C26.9572 13.9867 26.4506 13.3414 25.9571 12.7342L24.6626 11.0508L24.5879 11.1082C23.399 9.75013 22.2954 8.63739 21.2772 7.76999C19.4772 6.23665 17.4438 5.46999 15.1772 5.46999C12.3772 5.46999 10.1438 6.30332 8.47717 7.96999C6.87717 9.63665 6.07717 11.8367 6.07717 14.57C6.07717 17.3033 6.84384 19.47 8.37717 21.07C9.97717 22.67 12.1772 23.47 14.9772 23.47C17.4438 23.47 19.7772 22.67 21.9772 21.07C23.643 19.8585 25.0986 18.3412 26.344 16.5181L29.2868 20.345C27.7876 22.5574 25.9511 24.4324 23.7772 25.97C21.1105 27.8367 18.0105 28.77 14.4772 28.77C10.2105 28.7033 6.74384 27.4367 4.07717 24.97C1.4105 22.4367 0.0771713 18.97 0.0771713 14.57C0.0771713 10.17 1.47717 6.70332 4.27717 4.16999C7.07717 1.56999 10.6105 0.269989 14.8772 0.269989C18.2105 0.269989 21.0772 1.20332 23.4772 3.06999C25.932 4.86135 28.4199 7.41205 30.9407 10.7221L35.1873 16.3965L35.2362 16.3599C36.9582 18.4635 38.5719 20.1335 40.0772 21.37C41.9438 22.8367 44.0772 23.57 46.4772 23.57C49.2772 23.57 51.4772 22.7367 53.0772 21.07C54.7438 19.4033 55.5772 17.2033 55.5772 14.47C55.5772 11.7367 54.7772 9.56999 53.1772 7.96999C51.6438 6.36999 49.4772 5.56999 46.6772 5.56999C44.1438 5.56999 41.7772 6.40332 39.5772 8.06999C37.8835 9.35309 36.3873 10.9721 35.0888 12.9269L32.1112 8.94813C33.6512 6.69804 35.5065 4.80533 37.6772 3.26999C40.4772 1.26999 43.6438 0.269989 47.1772 0.269989Z" fill="#fff"/>
</svg>
