<svg width="395" height="100" viewBox="0 0 395 100" fill="none" xmlns="http://www.w3.org/2000/svg">
<g filter="url(#filter0_d_224_2)">
<path d="M84.7433 21.8C83.92 20.2833 82.7283 19.135 81.1683 18.355C79.6517 17.5317 77.8533 17.12 75.7733 17.12C72.1767 17.12 69.295 18.3117 67.1283 20.695C64.9617 23.035 63.8783 26.1767 63.8783 30.12C63.8783 34.3233 65.005 37.6167 67.2583 40C69.555 42.34 72.6967 43.51 76.6833 43.51C79.4133 43.51 81.71 42.8167 83.5733 41.43C85.48 40.0433 86.8667 38.05 87.7333 35.45H73.6283V27.26H97.8083V37.595C96.985 40.3683 95.5767 42.9467 93.5833 45.33C91.6333 47.7133 89.1417 49.6417 86.1083 51.115C83.075 52.5883 79.6517 53.325 75.8383 53.325C71.3317 53.325 67.3017 52.35 63.7483 50.4C60.2383 48.4067 57.4867 45.655 55.4933 42.145C53.5433 38.635 52.5683 34.6267 52.5683 30.12C52.5683 25.6133 53.5433 21.605 55.4933 18.095C57.4867 14.5417 60.2383 11.79 63.7483 9.84C67.2583 7.84666 71.2667 6.85 75.7733 6.85C81.2333 6.85 85.8267 8.17166 89.5533 10.815C93.3233 13.4583 95.815 17.12 97.0283 21.8H84.7433ZM96.7551 34.8C96.7551 31.0733 97.4484 27.8017 98.8351 24.985C100.265 22.1683 102.193 20.0017 104.62 18.485C107.047 16.9683 109.755 16.21 112.745 16.21C115.302 16.21 117.533 16.73 119.44 17.77C121.39 18.81 122.885 20.175 123.925 21.865V16.73H135.04V53H123.925V47.865C122.842 49.555 121.325 50.92 119.375 51.96C117.468 53 115.237 53.52 112.68 53.52C109.733 53.52 107.047 52.7617 104.62 51.245C102.193 49.685 100.265 47.4967 98.8351 44.68C97.4484 41.82 96.7551 38.5267 96.7551 34.8ZM123.925 34.865C123.925 32.0917 123.145 29.9033 121.585 28.3C120.068 26.6967 118.205 25.895 115.995 25.895C113.785 25.895 111.9 26.6967 110.34 28.3C108.823 29.86 108.065 32.0267 108.065 34.8C108.065 37.5733 108.823 39.7833 110.34 41.43C111.9 43.0333 113.785 43.835 115.995 43.835C118.205 43.835 120.068 43.0333 121.585 41.43C123.145 39.8267 123.925 37.6383 123.925 34.865ZM149.196 21.865C150.236 20.175 151.731 18.81 153.681 17.77C155.631 16.73 157.863 16.21 160.376 16.21C163.366 16.21 166.075 16.9683 168.501 18.485C170.928 20.0017 172.835 22.1683 174.221 24.985C175.651 27.8017 176.366 31.0733 176.366 34.8C176.366 38.5267 175.651 41.82 174.221 44.68C172.835 47.4967 170.928 49.685 168.501 51.245C166.075 52.7617 163.366 53.52 160.376 53.52C157.82 53.52 155.588 53.0217 153.681 52.025C151.775 50.985 150.28 49.62 149.196 47.93V53H138.081V4.9H149.196V21.865ZM165.056 34.8C165.056 32.0267 164.276 29.86 162.716 28.3C161.2 26.6967 159.315 25.895 157.061 25.895C154.851 25.895 152.966 26.6967 151.406 28.3C149.89 29.9033 149.131 32.0917 149.131 34.865C149.131 37.6383 149.89 39.8267 151.406 41.43C152.966 43.0333 154.851 43.835 157.061 43.835C159.271 43.835 161.156 43.0333 162.716 41.43C164.276 39.7833 165.056 37.5733 165.056 34.8ZM188.312 22.775C189.612 20.7817 191.237 19.2217 193.187 18.095C195.137 16.925 197.304 16.34 199.687 16.34V28.105H196.632C193.859 28.105 191.779 28.7117 190.392 29.925C189.006 31.095 188.312 33.175 188.312 36.165V53H177.197V16.73H188.312V22.775ZM205.59 12.96C203.64 12.96 202.037 12.3967 200.78 11.27C199.567 10.1 198.96 8.67 198.96 6.98C198.96 5.24667 199.567 3.81666 200.78 2.69C202.037 1.52 203.64 0.934996 205.59 0.934996C207.497 0.934996 209.057 1.52 210.27 2.69C211.527 3.81666 212.155 5.24667 212.155 6.98C212.155 8.67 211.527 10.1 210.27 11.27C209.057 12.3967 207.497 12.96 205.59 12.96ZM211.115 16.73V53H200V16.73H211.115ZM248.36 34.28C248.36 35.32 248.295 36.4033 248.165 37.53H223.01C223.183 39.7833 223.898 41.5167 225.155 42.73C226.455 43.9 228.037 44.485 229.9 44.485C232.673 44.485 234.602 43.315 235.685 40.975H247.515C246.908 43.3583 245.803 45.5033 244.2 47.41C242.64 49.3167 240.668 50.8117 238.285 51.895C235.902 52.9783 233.237 53.52 230.29 53.52C226.737 53.52 223.573 52.7617 220.8 51.245C218.027 49.7283 215.86 47.5617 214.3 44.745C212.74 41.9283 211.96 38.635 211.96 34.865C211.96 31.095 212.718 27.8017 214.235 24.985C215.795 22.1683 217.962 20.0017 220.735 18.485C223.508 16.9683 226.693 16.21 230.29 16.21C233.8 16.21 236.92 16.9467 239.65 18.42C242.38 19.8933 244.503 21.995 246.02 24.725C247.58 27.455 248.36 30.64 248.36 34.28ZM236.985 31.355C236.985 29.4483 236.335 27.9317 235.035 26.805C233.735 25.6783 232.11 25.115 230.16 25.115C228.297 25.115 226.715 25.6567 225.415 26.74C224.158 27.8233 223.378 29.3617 223.075 31.355H236.985ZM260.339 4.9V53H249.224V4.9H260.339Z" fill="white"/>
<path d="M293.748 53.455C289.458 53.455 285.515 52.4583 281.918 50.465C278.365 48.4717 275.527 45.6983 273.403 42.145C271.323 38.5483 270.283 34.5183 270.283 30.055C270.283 25.5917 271.323 21.5833 273.403 18.03C275.527 14.4767 278.365 11.7033 281.918 9.71C285.515 7.71667 289.458 6.72 293.748 6.72C298.038 6.72 301.96 7.71667 305.513 9.71C309.11 11.7033 311.927 14.4767 313.963 18.03C316.043 21.5833 317.083 25.5917 317.083 30.055C317.083 34.5183 316.043 38.5483 313.963 42.145C311.883 45.6983 309.067 48.4717 305.513 50.465C301.96 52.4583 298.038 53.455 293.748 53.455ZM293.748 43.315C297.388 43.315 300.292 42.1017 302.458 39.675C304.668 37.2483 305.773 34.0417 305.773 30.055C305.773 26.025 304.668 22.8183 302.458 20.435C300.292 18.0083 297.388 16.795 293.748 16.795C290.065 16.795 287.118 17.9867 284.908 20.37C282.742 22.7533 281.658 25.9817 281.658 30.055C281.658 34.085 282.742 37.3133 284.908 39.74C287.118 42.1233 290.065 43.315 293.748 43.315ZM329.382 4.9V53H318.267V4.9H329.382ZM343.552 4.9V53H332.437V4.9H343.552Z" fill="#85FFE9"/>
</g>
<g filter="url(#filter1_d_224_2)">
<path d="M15.975 74.0618V77.4868H8.825V81.1868H14.175V84.5118H8.825V91.6118H4.55V74.0618H15.975ZM24.6719 91.6118L21.0219 84.9868H19.9969V91.6118H15.7219V74.0618H22.8969C24.2802 74.0618 25.4552 74.3034 26.4219 74.7868C27.4052 75.2701 28.1385 75.9368 28.6219 76.7868C29.1052 77.6201 29.3469 78.5534 29.3469 79.5868C29.3469 80.7534 29.0135 81.7951 28.3469 82.7118C27.6969 83.6284 26.7302 84.2784 25.4469 84.6618L29.4969 91.6118H24.6719ZM19.9969 81.9618H22.6469C23.4302 81.9618 24.0135 81.7701 24.3969 81.3868C24.7969 81.0034 24.9969 80.4618 24.9969 79.7618C24.9969 79.0951 24.7969 78.5701 24.3969 78.1868C24.0135 77.8034 23.4302 77.6118 22.6469 77.6118H19.9969V81.9618ZM37.8305 91.7868C36.1805 91.7868 34.6638 91.4034 33.2805 90.6368C31.9138 89.8701 30.8221 88.8034 30.0055 87.4368C29.2055 86.0534 28.8055 84.5034 28.8055 82.7868C28.8055 81.0701 29.2055 79.5284 30.0055 78.1618C30.8221 76.7951 31.9138 75.7284 33.2805 74.9618C34.6638 74.1951 36.1805 73.8118 37.8305 73.8118C39.4805 73.8118 40.9888 74.1951 42.3555 74.9618C43.7388 75.7284 44.8221 76.7951 45.6055 78.1618C46.4055 79.5284 46.8055 81.0701 46.8055 82.7868C46.8055 84.5034 46.4055 86.0534 45.6055 87.4368C44.8055 88.8034 43.7221 89.8701 42.3555 90.6368C40.9888 91.4034 39.4805 91.7868 37.8305 91.7868ZM37.8305 87.8868C39.2305 87.8868 40.3471 87.4201 41.1805 86.4868C42.0305 85.5534 42.4555 84.3201 42.4555 82.7868C42.4555 81.2368 42.0305 80.0034 41.1805 79.0868C40.3471 78.1534 39.2305 77.6868 37.8305 77.6868C36.4138 77.6868 35.2805 78.1451 34.4305 79.0618C33.5971 79.9784 33.1805 81.2201 33.1805 82.7868C33.1805 84.3368 33.5971 85.5784 34.4305 86.5118C35.2805 87.4284 36.4138 87.8868 37.8305 87.8868ZM62.3838 91.6118H58.1088L50.9588 80.7868V91.6118H46.6838V74.0618H50.9588L58.1088 84.9368V74.0618H62.3838V91.6118ZM75.6076 74.0618V77.4868H70.9576V91.6118H66.6826V77.4868H62.0326V74.0618H75.6076ZM86.0031 81.0618V84.6118H75.0031V81.0618H86.0031ZM91.5301 77.4868V81.0368H97.2551V84.3368H91.5301V88.1868H98.0051V91.6118H87.2551V74.0618H98.0051V77.4868H91.5301ZM113.98 91.6118H109.705L102.555 80.7868V91.6118H98.2805V74.0618H102.555L109.705 84.9368V74.0618H113.98V91.6118ZM121.154 74.0618C123.004 74.0618 124.621 74.4284 126.004 75.1618C127.388 75.8951 128.454 76.9284 129.204 78.2618C129.971 79.5784 130.354 81.1034 130.354 82.8368C130.354 84.5534 129.971 86.0784 129.204 87.4118C128.454 88.7451 127.379 89.7784 125.979 90.5118C124.596 91.2451 122.988 91.6118 121.154 91.6118H114.579V74.0618H121.154ZM120.879 87.9118C122.496 87.9118 123.754 87.4701 124.654 86.5868C125.554 85.7034 126.004 84.4534 126.004 82.8368C126.004 81.2201 125.554 79.9618 124.654 79.0618C123.754 78.1618 122.496 77.7118 120.879 77.7118H118.854V87.9118H120.879ZM146.466 91.6118L144.841 90.0368C143.225 91.2701 141.291 91.8868 139.041 91.8868C137.691 91.8868 136.516 91.6701 135.516 91.2368C134.516 90.7868 133.741 90.1618 133.191 89.3618C132.658 88.5451 132.391 87.5951 132.391 86.5118C132.391 85.4118 132.683 84.4201 133.266 83.5368C133.866 82.6368 134.758 81.9034 135.941 81.3368C135.508 80.8034 135.2 80.2951 135.016 79.8118C134.833 79.3118 134.741 78.7701 134.741 78.1868C134.741 77.3534 134.958 76.5951 135.391 75.9118C135.825 75.2284 136.45 74.6951 137.266 74.3118C138.1 73.9118 139.083 73.7118 140.216 73.7118C141.366 73.7118 142.341 73.9201 143.141 74.3368C143.941 74.7534 144.541 75.3118 144.941 76.0118C145.341 76.7118 145.525 77.4784 145.491 78.3118H141.466C141.483 77.8618 141.366 77.5201 141.116 77.2868C140.883 77.0368 140.566 76.9118 140.166 76.9118C139.766 76.9118 139.433 77.0284 139.166 77.2618C138.9 77.4951 138.766 77.7951 138.766 78.1618C138.766 78.5118 138.875 78.8784 139.091 79.2618C139.325 79.6451 139.683 80.0868 140.166 80.5868L144.441 84.7618C144.475 84.6784 144.516 84.5784 144.566 84.4618C144.633 84.3451 144.7 84.2118 144.766 84.0618L145.691 82.4868H149.966L148.766 84.6618C148.316 85.6451 147.8 86.5784 147.216 87.4618L151.441 91.6118H146.466ZM139.241 88.4368C140.358 88.4368 141.35 88.1201 142.216 87.4868L138.316 83.7118C137.116 84.3284 136.516 85.1618 136.516 86.2118C136.516 86.8451 136.758 87.3784 137.241 87.8118C137.741 88.2284 138.408 88.4368 139.241 88.4368ZM163.91 82.6118C164.927 82.8284 165.744 83.3368 166.36 84.1368C166.977 84.9201 167.285 85.8201 167.285 86.8368C167.285 88.3034 166.769 89.4701 165.735 90.3368C164.719 91.1868 163.294 91.6118 161.46 91.6118H153.285V74.0618H161.185C162.969 74.0618 164.36 74.4701 165.36 75.2868C166.377 76.1034 166.885 77.2118 166.885 78.6118C166.885 79.6451 166.61 80.5034 166.06 81.1868C165.527 81.8701 164.81 82.3451 163.91 82.6118ZM157.56 81.1618H160.36C161.06 81.1618 161.594 81.0118 161.96 80.7118C162.344 80.3951 162.535 79.9368 162.535 79.3368C162.535 78.7368 162.344 78.2784 161.96 77.9618C161.594 77.6451 161.06 77.4868 160.36 77.4868H157.56V81.1618ZM160.71 88.1618C161.427 88.1618 161.977 88.0034 162.36 87.6868C162.76 87.3534 162.96 86.8784 162.96 86.2618C162.96 85.6451 162.752 85.1618 162.335 84.8118C161.935 84.4618 161.377 84.2868 160.66 84.2868H157.56V88.1618H160.71ZM178.19 88.5118H171.64L170.59 91.6118H166.115L172.465 74.0618H177.415L183.765 91.6118H179.24L178.19 88.5118ZM177.09 85.2118L174.915 78.7868L172.765 85.2118H177.09ZM182.472 82.8118C182.472 81.0784 182.847 79.5368 183.597 78.1868C184.347 76.8201 185.389 75.7618 186.722 75.0118C188.072 74.2451 189.597 73.8618 191.297 73.8618C193.381 73.8618 195.164 74.4118 196.647 75.5118C198.131 76.6118 199.122 78.1118 199.622 80.0118H194.922C194.572 79.2784 194.072 78.7201 193.422 78.3368C192.789 77.9534 192.064 77.7618 191.247 77.7618C189.931 77.7618 188.864 78.2201 188.047 79.1368C187.231 80.0534 186.822 81.2784 186.822 82.8118C186.822 84.3451 187.231 85.5701 188.047 86.4868C188.864 87.4034 189.931 87.8618 191.247 87.8618C192.064 87.8618 192.789 87.6701 193.422 87.2868C194.072 86.9034 194.572 86.3451 194.922 85.6118H199.622C199.122 87.5118 198.131 89.0118 196.647 90.1118C195.164 91.1951 193.381 91.7368 191.297 91.7368C189.597 91.7368 188.072 91.3618 186.722 90.6118C185.389 89.8451 184.347 88.7868 183.597 87.4368C182.847 86.0868 182.472 84.5451 182.472 82.8118ZM209.915 91.6118L204.015 83.8618V91.6118H199.74V74.0618H204.015V81.7618L209.865 74.0618H214.89L208.09 82.6618L215.14 91.6118H209.915ZM225.422 81.0618V84.6118H214.422V81.0618H225.422ZM230.949 77.4868V81.0368H236.674V84.3368H230.949V88.1868H237.424V91.6118H226.674V74.0618H237.424V77.4868H230.949ZM253.399 91.6118H249.124L241.974 80.7868V91.6118H237.699V74.0618H241.974L249.124 84.9368V74.0618H253.399V91.6118ZM260.573 74.0618C262.423 74.0618 264.04 74.4284 265.423 75.1618C266.807 75.8951 267.873 76.9284 268.623 78.2618C269.39 79.5784 269.773 81.1034 269.773 82.8368C269.773 84.5534 269.39 86.0784 268.623 87.4118C267.873 88.7451 266.798 89.7784 265.398 90.5118C264.015 91.2451 262.407 91.6118 260.573 91.6118H253.998V74.0618H260.573ZM260.298 87.9118C261.915 87.9118 263.173 87.4701 264.073 86.5868C264.973 85.7034 265.423 84.4534 265.423 82.8368C265.423 81.2201 264.973 79.9618 264.073 79.0618C263.173 78.1618 261.915 77.7118 260.298 77.7118H258.273V87.9118H260.298ZM279.035 74.0618C280.885 74.0618 282.502 74.4284 283.885 75.1618C285.268 75.8951 286.335 76.9284 287.085 78.2618C287.852 79.5784 288.235 81.1034 288.235 82.8368C288.235 84.5534 287.852 86.0784 287.085 87.4118C286.335 88.7451 285.26 89.7784 283.86 90.5118C282.477 91.2451 280.868 91.6118 279.035 91.6118H272.46V74.0618H279.035ZM278.76 87.9118C280.377 87.9118 281.635 87.4701 282.535 86.5868C283.435 85.7034 283.885 84.4534 283.885 82.8368C283.885 81.2201 283.435 79.9618 282.535 79.0618C281.635 78.1618 280.377 77.7118 278.76 77.7118H276.735V87.9118H278.76ZM292.399 77.4868V81.0368H298.124V84.3368H292.399V88.1868H298.874V91.6118H288.124V74.0618H298.874V77.4868H292.399ZM315.625 74.0618L309.4 91.6118H304.05L297.825 74.0618H302.375L306.725 87.3118L311.1 74.0618H315.625ZM319.186 77.4868V81.0368H324.911V84.3368H319.186V88.1868H325.661V91.6118H314.911V74.0618H325.661V77.4868H319.186ZM330.212 88.3118H335.812V91.6118H325.937V74.0618H330.212V88.3118ZM343.651 91.7868C342.001 91.7868 340.484 91.4034 339.101 90.6368C337.734 89.8701 336.642 88.8034 335.826 87.4368C335.026 86.0534 334.626 84.5034 334.626 82.7868C334.626 81.0701 335.026 79.5284 335.826 78.1618C336.642 76.7951 337.734 75.7284 339.101 74.9618C340.484 74.1951 342.001 73.8118 343.651 73.8118C345.301 73.8118 346.809 74.1951 348.176 74.9618C349.559 75.7284 350.642 76.7951 351.426 78.1618C352.226 79.5284 352.626 81.0701 352.626 82.7868C352.626 84.5034 352.226 86.0534 351.426 87.4368C350.626 88.8034 349.542 89.8701 348.176 90.6368C346.809 91.4034 345.301 91.7868 343.651 91.7868ZM343.651 87.8868C345.051 87.8868 346.167 87.4201 347.001 86.4868C347.851 85.5534 348.276 84.3201 348.276 82.7868C348.276 81.2368 347.851 80.0034 347.001 79.0868C346.167 78.1534 345.051 77.6868 343.651 77.6868C342.234 77.6868 341.101 78.1451 340.251 79.0618C339.417 79.9784 339.001 81.2201 339.001 82.7868C339.001 84.3368 339.417 85.5784 340.251 86.5118C341.101 87.4284 342.234 87.8868 343.651 87.8868ZM365.879 79.7118C365.879 80.7284 365.646 81.6618 365.179 82.5118C364.712 83.3451 363.996 84.0201 363.029 84.5368C362.062 85.0534 360.862 85.3118 359.429 85.3118H356.779V91.6118H352.504V74.0618H359.429C360.829 74.0618 362.012 74.3034 362.979 74.7868C363.946 75.2701 364.671 75.9368 365.154 76.7868C365.637 77.6368 365.879 78.6118 365.879 79.7118ZM359.104 81.9118C359.921 81.9118 360.529 81.7201 360.929 81.3368C361.329 80.9534 361.529 80.4118 361.529 79.7118C361.529 79.0118 361.329 78.4701 360.929 78.0868C360.529 77.7034 359.921 77.5118 359.104 77.5118H356.779V81.9118H359.104ZM369.88 77.4868V81.0368H375.605V84.3368H369.88V88.1868H376.355V91.6118H365.605V74.0618H376.355V77.4868H369.88ZM385.58 91.6118L381.93 84.9868H380.905V91.6118H376.63V74.0618H383.805C385.188 74.0618 386.363 74.3034 387.33 74.7868C388.313 75.2701 389.047 75.9368 389.53 76.7868C390.013 77.6201 390.255 78.5534 390.255 79.5868C390.255 80.7534 389.922 81.7951 389.255 82.7118C388.605 83.6284 387.638 84.2784 386.355 84.6618L390.405 91.6118H385.58ZM380.905 81.9618H383.555C384.338 81.9618 384.922 81.7701 385.305 81.3868C385.705 81.0034 385.905 80.4618 385.905 79.7618C385.905 79.0951 385.705 78.5701 385.305 78.1868C384.922 77.8034 384.338 77.6118 383.555 77.6118H380.905V81.9618Z" fill="white"/>
</g>
<defs>
<filter id="filter0_d_224_2" x="48.5683" y="0.934998" width="298.983" height="60.585" filterUnits="userSpaceOnUse" color-interpolation-filters="sRGB">
<feFlood flood-opacity="0" result="BackgroundImageFix"/>
<feColorMatrix in="SourceAlpha" type="matrix" values="0 0 0 0 0 0 0 0 0 0 0 0 0 0 0 0 0 0 127 0" result="hardAlpha"/>
<feOffset dy="4"/>
<feGaussianBlur stdDeviation="2"/>
<feComposite in2="hardAlpha" operator="out"/>
<feColorMatrix type="matrix" values="0 0 0 0 0 0 0 0 0 0 0 0 0 0 0 0 0 0 0.25 0"/>
<feBlend mode="normal" in2="BackgroundImageFix" result="effect1_dropShadow_224_2"/>
<feBlend mode="normal" in="SourceGraphic" in2="effect1_dropShadow_224_2" result="shape"/>
</filter>
<filter id="filter1_d_224_2" x="0.550003" y="73.7118" width="393.855" height="26.175" filterUnits="userSpaceOnUse" color-interpolation-filters="sRGB">
<feFlood flood-opacity="0" result="BackgroundImageFix"/>
<feColorMatrix in="SourceAlpha" type="matrix" values="0 0 0 0 0 0 0 0 0 0 0 0 0 0 0 0 0 0 127 0" result="hardAlpha"/>
<feOffset dy="4"/>
<feGaussianBlur stdDeviation="2"/>
<feComposite in2="hardAlpha" operator="out"/>
<feColorMatrix type="matrix" values="0 0 0 0 0 0 0 0 0 0 0 0 0 0 0 0 0 0 0.25 0"/>
<feBlend mode="normal" in2="BackgroundImageFix" result="effect1_dropShadow_224_2"/>
<feBlend mode="normal" in="SourceGraphic" in2="effect1_dropShadow_224_2" result="shape"/>
</filter>
</defs>
</svg>
