<svg width="65" height="32" viewBox="0 0 65 32" fill="none" xmlns="http://www.w3.org/2000/svg">
<path d="M48.8926 0.674668C53.4259 0.674668 57.2259 2.07467 60.2926 4.87467C63.3592 7.608 64.8926 11.3747 64.8926 16.1747C64.8926 19.3747 64.1592 22.1413 62.6926 24.4747C61.2926 26.808 59.3592 28.608 56.8926 29.8747C54.4259 31.1413 51.7259 31.7747 48.7926 31.7747C45.5259 31.7747 42.5592 30.9747 39.8926 29.3747C37.2926 27.708 34.7259 25.4413 32.1926 22.5747C30.3926 25.308 28.0926 27.5413 25.2926 29.2747C22.4926 30.9413 19.4259 31.7747 16.0926 31.7747C11.4259 31.7747 7.59258 30.408 4.59258 27.6747C1.59258 24.8747 0.0925782 21.0747 0.0925782 16.2747C0.0925782 13.0747 0.792578 10.308 2.19258 7.97467C3.65924 5.64133 5.62591 3.84133 8.09258 2.57467C10.5592 1.308 13.2592 0.674668 16.1926 0.674668C19.5926 0.674668 22.5592 1.54133 25.0926 3.27467C27.6926 4.94133 30.1926 7.24133 32.5926 10.1747C34.3926 7.308 36.6926 5.008 39.4926 3.27467C42.3592 1.54133 45.4926 0.674668 48.8926 0.674668ZM16.7926 23.5747C18.7926 23.5747 20.7259 22.9747 22.5926 21.7747C24.5259 20.508 26.1592 18.8747 27.4926 16.8747C25.3592 14.208 23.4926 12.208 21.8926 10.8747C20.2926 9.54133 18.5926 8.87467 16.7926 8.87467C14.6592 8.87467 12.9259 9.54133 11.5926 10.8747C10.2592 12.1413 9.59258 13.9413 9.59258 16.2747C9.59258 18.608 10.2592 20.408 11.5926 21.6747C12.9259 22.9413 14.6592 23.5747 16.7926 23.5747ZM48.1926 23.5747C50.3259 23.5747 52.0592 22.9413 53.3926 21.6747C54.7259 20.3413 55.3926 18.508 55.3926 16.1747C55.3926 13.8413 54.7259 12.0413 53.3926 10.7747C52.0592 9.508 50.3259 8.87467 48.1926 8.87467C46.1259 8.87467 44.0926 9.508 42.0926 10.7747C40.1592 12.0413 38.5259 13.7747 37.1926 15.9747C39.1926 18.508 41.0259 20.408 42.6926 21.6747C44.3592 22.9413 46.1926 23.5747 48.1926 23.5747Z" fill="white"/>
</svg>
