<svg width="542" height="87" viewBox="0 0 542 87" fill="none" xmlns="http://www.w3.org/2000/svg">
<g filter="url(#filter0_d_202_96)">
<path d="M29.4 12C28.7667 10.8333 27.85 9.95 26.65 9.35C25.4833 8.71666 24.1 8.4 22.5 8.4C19.7333 8.4 17.5167 9.31666 15.85 11.15C14.1833 12.95 13.35 15.3667 13.35 18.4C13.35 21.6333 14.2167 24.1667 15.95 26C17.7167 27.8 20.1333 28.7 23.2 28.7C25.3 28.7 27.0667 28.1667 28.5 27.1C29.9667 26.0333 31.0333 24.5 31.7 22.5H20.85V16.2H39.45V24.15C38.8167 26.2833 37.7333 28.2667 36.2 30.1C34.7 31.9333 32.7833 33.4167 30.45 34.55C28.1167 35.6833 25.4833 36.25 22.55 36.25C19.0833 36.25 15.9833 35.5 13.25 34C10.55 32.4667 8.43333 30.35 6.9 27.65C5.4 24.95 4.65 21.8667 4.65 18.4C4.65 14.9333 5.4 11.85 6.9 9.15C8.43333 6.41667 10.55 4.3 13.25 2.8C15.95 1.26666 19.0333 0.499998 22.5 0.499998C26.7 0.499998 30.2333 1.51666 33.1 3.55C36 5.58333 37.9167 8.4 38.85 12H29.4ZM86.0359 29.8H72.9359L70.8359 36H61.8859L74.5859 0.899999H84.4859L97.1859 36H88.1359L86.0359 29.8ZM83.8359 23.2L79.4859 10.35L75.1859 23.2H83.8359ZM142.301 18C144.335 18.4333 145.968 19.45 147.201 21.05C148.435 22.6167 149.051 24.4167 149.051 26.45C149.051 29.3833 148.018 31.7167 145.951 33.45C143.918 35.15 141.068 36 137.401 36H121.051V0.899999H136.851C140.418 0.899999 143.201 1.71666 145.201 3.35C147.235 4.98333 148.251 7.2 148.251 10C148.251 12.0667 147.701 13.7833 146.601 15.15C145.535 16.5167 144.101 17.4667 142.301 18ZM129.601 15.1H135.201C136.601 15.1 137.668 14.8 138.401 14.2C139.168 13.5667 139.551 12.65 139.551 11.45C139.551 10.25 139.168 9.33333 138.401 8.7C137.668 8.06667 136.601 7.75 135.201 7.75H129.601V15.1ZM135.901 29.1C137.335 29.1 138.435 28.7833 139.201 28.15C140.001 27.4833 140.401 26.5333 140.401 25.3C140.401 24.0667 139.985 23.1 139.151 22.4C138.351 21.7 137.235 21.35 135.801 21.35H129.601V29.1H135.901ZM191.91 36L184.61 22.75H182.56V36H174.01V0.899999H188.36C191.127 0.899999 193.477 1.38333 195.41 2.35C197.377 3.31666 198.843 4.65 199.81 6.35C200.777 8.01666 201.26 9.88333 201.26 11.95C201.26 14.2833 200.593 16.3667 199.26 18.2C197.96 20.0333 196.027 21.3333 193.46 22.1L201.56 36H191.91ZM182.56 16.7H187.86C189.427 16.7 190.593 16.3167 191.36 15.55C192.16 14.7833 192.56 13.7 192.56 12.3C192.56 10.9667 192.16 9.91667 191.36 9.15C190.593 8.38333 189.427 8 187.86 8H182.56V16.7ZM235.177 0.899999V36H226.627V0.899999H235.177ZM269.923 7.75V14.85H281.373V21.45H269.923V29.15H282.873V36H261.373V0.899999H282.873V7.75H269.923ZM316.974 29.4H328.174V36H308.424V0.899999H316.974V29.4Z" fill="#FAF7F7"/>
<path d="M430.044 36.35C426.744 36.35 423.71 35.5833 420.944 34.05C418.21 32.5167 416.027 30.3833 414.394 27.65C412.794 24.8833 411.994 21.7833 411.994 18.35C411.994 14.9167 412.794 11.8333 414.394 9.1C416.027 6.36667 418.21 4.23333 420.944 2.7C423.71 1.16667 426.744 0.399999 430.044 0.399999C433.344 0.399999 436.36 1.16667 439.094 2.7C441.86 4.23333 444.027 6.36667 445.594 9.1C447.194 11.8333 447.994 14.9167 447.994 18.35C447.994 21.7833 447.194 24.8833 445.594 27.65C443.994 30.3833 441.827 32.5167 439.094 34.05C436.36 35.5833 433.344 36.35 430.044 36.35ZM430.044 28.55C432.844 28.55 435.077 27.6167 436.744 25.75C438.444 23.8833 439.294 21.4167 439.294 18.35C439.294 15.25 438.444 12.7833 436.744 10.95C435.077 9.08333 432.844 8.15 430.044 8.15C427.21 8.15 424.944 9.06666 423.244 10.9C421.577 12.7333 420.744 15.2167 420.744 18.35C420.744 21.45 421.577 23.9333 423.244 25.8C424.944 27.6333 427.21 28.55 430.044 28.55ZM481.3 29.4H492.5V36H472.75V0.899999H481.3V29.4ZM525.129 29.4H536.329V36H516.579V0.899999H525.129V29.4Z" fill="#DBFFFB"/>
</g>
<g filter="url(#filter1_d_202_96)">
<path d="M25.975 60.45V63.875H18.825V67.575H24.175V70.9H18.825V78H14.55V60.45H25.975ZM38.9219 78L35.2719 71.375H34.2469V78H29.9719V60.45H37.1469C38.5302 60.45 39.7052 60.6917 40.6719 61.175C41.6552 61.6583 42.3885 62.325 42.8719 63.175C43.3552 64.0083 43.5969 64.9417 43.5969 65.975C43.5969 67.1417 43.2635 68.1833 42.5969 69.1C41.9469 70.0167 40.9802 70.6667 39.6969 71.05L43.7469 78H38.9219ZM34.2469 68.35H36.8969C37.6802 68.35 38.2635 68.1583 38.6469 67.775C39.0469 67.3917 39.2469 66.85 39.2469 66.15C39.2469 65.4833 39.0469 64.9583 38.6469 64.575C38.2635 64.1917 37.6802 64 36.8969 64H34.2469V68.35ZM56.3305 78.175C54.6805 78.175 53.1638 77.7917 51.7805 77.025C50.4138 76.2583 49.3221 75.1917 48.5055 73.825C47.7055 72.4417 47.3055 70.8917 47.3055 69.175C47.3055 67.4583 47.7055 65.9167 48.5055 64.55C49.3221 63.1833 50.4138 62.1167 51.7805 61.35C53.1638 60.5833 54.6805 60.2 56.3305 60.2C57.9805 60.2 59.4888 60.5833 60.8555 61.35C62.2388 62.1167 63.3221 63.1833 64.1055 64.55C64.9055 65.9167 65.3055 67.4583 65.3055 69.175C65.3055 70.8917 64.9055 72.4417 64.1055 73.825C63.3055 75.1917 62.2221 76.2583 60.8555 77.025C59.4888 77.7917 57.9805 78.175 56.3305 78.175ZM56.3305 74.275C57.7305 74.275 58.8471 73.8083 59.6805 72.875C60.5305 71.9417 60.9555 70.7083 60.9555 69.175C60.9555 67.625 60.5305 66.3917 59.6805 65.475C58.8471 64.5417 57.7305 64.075 56.3305 64.075C54.9138 64.075 53.7805 64.5333 52.9305 65.45C52.0971 66.3667 51.6805 67.6083 51.6805 69.175C51.6805 70.725 52.0971 71.9667 52.9305 72.9C53.7805 73.8167 54.9138 74.275 56.3305 74.275ZM85.1338 78H80.8588L73.7088 67.175V78H69.4338V60.45H73.7088L80.8588 71.325V60.45H85.1338V78ZM102.608 60.45V63.875H97.9576V78H93.6826V63.875H89.0326V60.45H102.608ZM117.253 67.45V71H106.253V67.45H117.253ZM127.03 63.875V67.425H132.755V70.725H127.03V74.575H133.505V78H122.755V60.45H133.505V63.875H127.03ZM153.73 78H149.455L142.305 67.175V78H138.03V60.45H142.305L149.455 71.325V60.45H153.73V78ZM165.154 60.45C167.004 60.45 168.621 60.8167 170.004 61.55C171.388 62.2833 172.454 63.3167 173.204 64.65C173.971 65.9667 174.354 67.4917 174.354 69.225C174.354 70.9417 173.971 72.4667 173.204 73.8C172.454 75.1333 171.379 76.1667 169.979 76.9C168.596 77.6333 166.988 78 165.154 78H158.579V60.45H165.154ZM164.879 74.3C166.496 74.3 167.754 73.8583 168.654 72.975C169.554 72.0917 170.004 70.8417 170.004 69.225C170.004 67.6083 169.554 66.35 168.654 65.45C167.754 64.55 166.496 64.1 164.879 64.1H162.854V74.3H164.879ZM198.966 78L197.341 76.425C195.725 77.6583 193.791 78.275 191.541 78.275C190.191 78.275 189.016 78.0583 188.016 77.625C187.016 77.175 186.241 76.55 185.691 75.75C185.158 74.9333 184.891 73.9833 184.891 72.9C184.891 71.8 185.183 70.8083 185.766 69.925C186.366 69.025 187.258 68.2917 188.441 67.725C188.008 67.1917 187.7 66.6833 187.516 66.2C187.333 65.7 187.241 65.1583 187.241 64.575C187.241 63.7417 187.458 62.9833 187.891 62.3C188.325 61.6167 188.95 61.0833 189.766 60.7C190.6 60.3 191.583 60.1 192.716 60.1C193.866 60.1 194.841 60.3083 195.641 60.725C196.441 61.1417 197.041 61.7 197.441 62.4C197.841 63.1 198.025 63.8667 197.991 64.7H193.966C193.983 64.25 193.866 63.9083 193.616 63.675C193.383 63.425 193.066 63.3 192.666 63.3C192.266 63.3 191.933 63.4167 191.666 63.65C191.4 63.8833 191.266 64.1833 191.266 64.55C191.266 64.9 191.375 65.2667 191.591 65.65C191.825 66.0333 192.183 66.475 192.666 66.975L196.941 71.15C196.975 71.0667 197.016 70.9667 197.066 70.85C197.133 70.7333 197.2 70.6 197.266 70.45L198.191 68.875H202.466L201.266 71.05C200.816 72.0333 200.3 72.9667 199.716 73.85L203.941 78H198.966ZM191.741 74.825C192.858 74.825 193.85 74.5083 194.716 73.875L190.816 70.1C189.616 70.7167 189.016 71.55 189.016 72.6C189.016 73.2333 189.258 73.7667 189.741 74.2C190.241 74.6167 190.908 74.825 191.741 74.825ZM224.91 69C225.927 69.2167 226.744 69.725 227.36 70.525C227.977 71.3083 228.285 72.2083 228.285 73.225C228.285 74.6917 227.769 75.8583 226.735 76.725C225.719 77.575 224.294 78 222.46 78H214.285V60.45H222.185C223.969 60.45 225.36 60.8583 226.36 61.675C227.377 62.4917 227.885 63.6 227.885 65C227.885 66.0333 227.61 66.8917 227.06 67.575C226.527 68.2583 225.81 68.7333 224.91 69ZM218.56 67.55H221.36C222.06 67.55 222.594 67.4 222.96 67.1C223.344 66.7833 223.535 66.325 223.535 65.725C223.535 65.125 223.344 64.6667 222.96 64.35C222.594 64.0333 222.06 63.875 221.36 63.875H218.56V67.55ZM221.71 74.55C222.427 74.55 222.977 74.3917 223.36 74.075C223.76 73.7417 223.96 73.2667 223.96 72.65C223.96 72.0333 223.752 71.55 223.335 71.2C222.935 70.85 222.377 70.675 221.66 70.675H218.56V74.55H221.71ZM243.44 74.9H236.89L235.84 78H231.365L237.715 60.45H242.665L249.015 78H244.49L243.44 74.9ZM242.34 71.6L240.165 65.175L238.015 71.6H242.34ZM251.972 69.2C251.972 67.4667 252.347 65.925 253.097 64.575C253.847 63.2083 254.889 62.15 256.222 61.4C257.572 60.6333 259.097 60.25 260.797 60.25C262.881 60.25 264.664 60.8 266.147 61.9C267.631 63 268.622 64.5 269.122 66.4H264.422C264.072 65.6667 263.572 65.1083 262.922 64.725C262.289 64.3417 261.564 64.15 260.747 64.15C259.431 64.15 258.364 64.6083 257.547 65.525C256.731 66.4417 256.322 67.6667 256.322 69.2C256.322 70.7333 256.731 71.9583 257.547 72.875C258.364 73.7917 259.431 74.25 260.747 74.25C261.564 74.25 262.289 74.0583 262.922 73.675C263.572 73.2917 264.072 72.7333 264.422 72H269.122C268.622 73.9 267.631 75.4 266.147 76.5C264.664 77.5833 262.881 78.125 260.797 78.125C259.097 78.125 257.572 77.75 256.222 77C254.889 76.2333 253.847 75.175 253.097 73.825C252.347 72.475 251.972 70.9333 251.972 69.2ZM283.665 78L277.765 70.25V78H273.49V60.45H277.765V68.15L283.615 60.45H288.64L281.84 69.05L288.89 78H283.665ZM303.422 67.45V71H292.422V67.45H303.422ZM313.199 63.875V67.425H318.924V70.725H313.199V74.575H319.674V78H308.924V60.45H319.674V63.875H313.199ZM339.899 78H335.624L328.474 67.175V78H324.199V60.45H328.474L335.624 71.325V60.45H339.899V78ZM351.323 60.45C353.173 60.45 354.79 60.8167 356.173 61.55C357.557 62.2833 358.623 63.3167 359.373 64.65C360.14 65.9667 360.523 67.4917 360.523 69.225C360.523 70.9417 360.14 72.4667 359.373 73.8C358.623 75.1333 357.548 76.1667 356.148 76.9C354.765 77.6333 353.157 78 351.323 78H344.748V60.45H351.323ZM351.048 74.3C352.665 74.3 353.923 73.8583 354.823 72.975C355.723 72.0917 356.173 70.8417 356.173 69.225C356.173 67.6083 355.723 66.35 354.823 65.45C353.923 64.55 352.665 64.1 351.048 64.1H349.023V74.3H351.048ZM378.285 60.45C380.135 60.45 381.752 60.8167 383.135 61.55C384.518 62.2833 385.585 63.3167 386.335 64.65C387.102 65.9667 387.485 67.4917 387.485 69.225C387.485 70.9417 387.102 72.4667 386.335 73.8C385.585 75.1333 384.51 76.1667 383.11 76.9C381.727 77.6333 380.118 78 378.285 78H371.71V60.45H378.285ZM378.01 74.3C379.627 74.3 380.885 73.8583 381.785 72.975C382.685 72.0917 383.135 70.8417 383.135 69.225C383.135 67.6083 382.685 66.35 381.785 65.45C380.885 64.55 379.627 64.1 378.01 64.1H375.985V74.3H378.01ZM395.899 63.875V67.425H401.624V70.725H395.899V74.575H402.374V78H391.624V60.45H402.374V63.875H395.899ZM423.375 60.45L417.15 78H411.8L405.575 60.45H410.125L414.475 73.7L418.85 60.45H423.375ZM431.186 63.875V67.425H436.911V70.725H431.186V74.575H437.661V78H426.911V60.45H437.661V63.875H431.186ZM446.462 74.7H452.062V78H442.187V60.45H446.462V74.7ZM464.151 78.175C462.501 78.175 460.984 77.7917 459.601 77.025C458.234 76.2583 457.142 75.1917 456.326 73.825C455.526 72.4417 455.126 70.8917 455.126 69.175C455.126 67.4583 455.526 65.9167 456.326 64.55C457.142 63.1833 458.234 62.1167 459.601 61.35C460.984 60.5833 462.501 60.2 464.151 60.2C465.801 60.2 467.309 60.5833 468.676 61.35C470.059 62.1167 471.142 63.1833 471.926 64.55C472.726 65.9167 473.126 67.4583 473.126 69.175C473.126 70.8917 472.726 72.4417 471.926 73.825C471.126 75.1917 470.042 76.2583 468.676 77.025C467.309 77.7917 465.801 78.175 464.151 78.175ZM464.151 74.275C465.551 74.275 466.667 73.8083 467.501 72.875C468.351 71.9417 468.776 70.7083 468.776 69.175C468.776 67.625 468.351 66.3917 467.501 65.475C466.667 64.5417 465.551 64.075 464.151 64.075C462.734 64.075 461.601 64.5333 460.751 65.45C459.917 66.3667 459.501 67.6083 459.501 69.175C459.501 70.725 459.917 71.9667 460.751 72.9C461.601 73.8167 462.734 74.275 464.151 74.275ZM490.629 66.1C490.629 67.1167 490.396 68.05 489.929 68.9C489.462 69.7333 488.746 70.4083 487.779 70.925C486.812 71.4417 485.612 71.7 484.179 71.7H481.529V78H477.254V60.45H484.179C485.579 60.45 486.762 60.6917 487.729 61.175C488.696 61.6583 489.421 62.325 489.904 63.175C490.387 64.025 490.629 65 490.629 66.1ZM483.854 68.3C484.671 68.3 485.279 68.1083 485.679 67.725C486.079 67.3417 486.279 66.8 486.279 66.1C486.279 65.4 486.079 64.8583 485.679 64.475C485.279 64.0917 484.671 63.9 483.854 63.9H481.529V68.3H483.854ZM498.88 63.875V67.425H504.605V70.725H498.88V74.575H505.355V78H494.605V60.45H505.355V63.875H498.88ZM518.83 78L515.18 71.375H514.155V78H509.88V60.45H517.055C518.438 60.45 519.613 60.6917 520.58 61.175C521.563 61.6583 522.297 62.325 522.78 63.175C523.263 64.0083 523.505 64.9417 523.505 65.975C523.505 67.1417 523.172 68.1833 522.505 69.1C521.855 70.0167 520.888 70.6667 519.605 71.05L523.655 78H518.83ZM514.155 68.35H516.805C517.588 68.35 518.172 68.1583 518.555 67.775C518.955 67.3917 519.155 66.85 519.155 66.15C519.155 65.4833 518.955 64.9583 518.555 64.575C518.172 64.1917 517.588 64 516.805 64H514.155V68.35Z" fill="white"/>
</g>
<defs>
<filter id="filter0_d_202_96" x="0.649994" y="0.399994" width="539.678" height="43.95" filterUnits="userSpaceOnUse" color-interpolation-filters="sRGB">
<feFlood flood-opacity="0" result="BackgroundImageFix"/>
<feColorMatrix in="SourceAlpha" type="matrix" values="0 0 0 0 0 0 0 0 0 0 0 0 0 0 0 0 0 0 127 0" result="hardAlpha"/>
<feOffset dy="4"/>
<feGaussianBlur stdDeviation="2"/>
<feComposite in2="hardAlpha" operator="out"/>
<feColorMatrix type="matrix" values="0 0 0 0 0 0 0 0 0 0 0 0 0 0 0 0 0 0 0.25 0"/>
<feBlend mode="normal" in2="BackgroundImageFix" result="effect1_dropShadow_202_96"/>
<feBlend mode="normal" in="SourceGraphic" in2="effect1_dropShadow_202_96" result="shape"/>
</filter>
<filter id="filter1_d_202_96" x="10.55" y="60.1" width="517.105" height="26.175" filterUnits="userSpaceOnUse" color-interpolation-filters="sRGB">
<feFlood flood-opacity="0" result="BackgroundImageFix"/>
<feColorMatrix in="SourceAlpha" type="matrix" values="0 0 0 0 0 0 0 0 0 0 0 0 0 0 0 0 0 0 127 0" result="hardAlpha"/>
<feOffset dy="4"/>
<feGaussianBlur stdDeviation="2"/>
<feComposite in2="hardAlpha" operator="out"/>
<feColorMatrix type="matrix" values="0 0 0 0 0 0 0 0 0 0 0 0 0 0 0 0 0 0 0.25 0"/>
<feBlend mode="normal" in2="BackgroundImageFix" result="effect1_dropShadow_202_96"/>
<feBlend mode="normal" in="SourceGraphic" in2="effect1_dropShadow_202_96" result="shape"/>
</filter>
</defs>
</svg>
