<svg width="106" height="65" viewBox="0 0 106 65" fill="none" xmlns="http://www.w3.org/2000/svg">
<rect x="1.75" y="1.5" width="102" height="62" rx="3.5" stroke="black" stroke-width="3"/>
<rect x="1.75" y="1.5" width="102" height="13" rx="3.5" stroke="black" stroke-width="3"/>
<circle cx="97.25" cy="8" r="2" fill="black"/>
<circle cx="91.25" cy="8" r="2" fill="black"/>
<circle cx="85.25" cy="8" r="2" fill="black"/>
<path fill-rule="evenodd" clip-rule="evenodd" d="M52.75 53.9264C61.0343 53.9264 67.75 47.2107 67.75 38.9264C67.75 30.6421 61.0343 23.9264 52.75 23.9264C44.4657 23.9264 37.75 30.6421 37.75 38.9264C37.75 47.2107 44.4657 53.9264 52.75 53.9264ZM44.75 32.2264C44.75 32.0607 44.8843 31.9264 45.05 31.9264H52.45C52.6157 31.9264 52.75 32.0607 52.75 32.2264V34.8064C52.75 34.9169 52.6605 35.0064 52.55 35.0064H48.7833C48.6729 35.0064 48.5833 35.0959 48.5833 35.2064V39.1931C48.5833 39.3035 48.4938 39.3931 48.3833 39.3931H45.05C44.8843 39.3931 44.75 39.2588 44.75 39.0931V32.2264ZM56.75 35.4931C56.75 35.3274 56.6157 35.1931 56.45 35.1931H49.05C48.8843 35.1931 48.75 35.3274 48.75 35.4931V42.3597C48.75 42.5254 48.8843 42.6597 49.05 42.6597H52.2833C52.449 42.6597 52.5833 42.5254 52.5833 42.3597V38.5731C52.5833 38.4074 52.7176 38.2731 52.8833 38.2731H56.45C56.6157 38.2731 56.75 38.1388 56.75 37.9731V35.4931ZM53.05 38.4597C52.8843 38.4597 52.75 38.5941 52.75 38.7597V45.6264C52.75 45.7921 52.8843 45.9264 53.05 45.9264H60.45C60.6157 45.9264 60.75 45.7921 60.75 45.6264V38.7597C60.75 38.5941 60.6157 38.4597 60.45 38.4597H53.05Z" fill="black"/>
</svg>
