<svg width="1440" height="1024" viewBox="0 0 1440 1024" fill="none" xmlns="http://www.w3.org/2000/svg">
<mask id="mask0_7_5" style="mask-type:alpha" maskUnits="userSpaceOnUse" x="0" y="0" width="1440" height="1024">
<rect width="1440" height="1024" fill="#FFDC00"/>
</mask>
<g mask="url(#mask0_7_5)">
</g>
<g clip-path="url(#clip0_7_5)">
<rect width="1440" height="1024" fill="#FFDC00"/>
<path fill-rule="evenodd" clip-rule="evenodd" d="M201 68C201 145.32 138.32 208 61 208C-16.3199 208 -79 145.32 -79 68C-79 -9.31986 -16.3199 -72 61 -72C138.32 -72 201 -9.31986 201 68ZM211 68C211 150.843 143.843 218 61 218C-21.8427 218 -89 150.843 -89 68C-89 -14.8427 -21.8427 -82 61 -82C143.843 -82 211 -14.8427 211 68ZM61 193C130.036 193 186 137.036 186 68C186 -1.03559 130.036 -57 61 -57C-8.03559 -57 -64 -1.03559 -64 68C-64 137.036 -8.03559 193 61 193Z" fill="black"/>
<path fill-rule="evenodd" clip-rule="evenodd" d="M90 1024C90 1073.71 49.7056 1114 0 1114C-49.7056 1114 -90 1073.71 -90 1024C-90 974.294 -49.7056 934 0 934C49.7056 934 90 974.294 90 1024ZM100 1024C100 1079.23 55.2285 1124 0 1124C-55.2285 1124 -100 1079.23 -100 1024C-100 968.772 -55.2285 924 0 924C55.2285 924 100 968.772 100 1024ZM0 1107.33C46.0237 1107.33 83.3333 1070.02 83.3333 1024C83.3333 977.976 46.0237 940.667 0 940.667C-46.0237 940.667 -83.3333 977.976 -83.3333 1024C-83.3333 1070.02 -46.0237 1107.33 0 1107.33Z" fill="black"/>
<path d="M1373 363.333C1419.02 363.333 1456.33 326.024 1456.33 280C1456.33 233.976 1419.02 196.667 1373 196.667C1326.98 196.667 1289.67 233.976 1289.67 280C1289.67 326.024 1326.98 363.333 1373 363.333Z" fill="black"/>
<path fill-rule="evenodd" clip-rule="evenodd" d="M1473 280C1473 335.228 1428.23 380 1373 380C1317.77 380 1273 335.228 1273 280C1273 224.772 1317.77 180 1373 180C1428.23 180 1473 224.772 1473 280ZM1463 280C1463 329.706 1422.71 370 1373 370C1323.29 370 1283 329.706 1283 280C1283 230.294 1323.29 190 1373 190C1422.71 190 1463 230.294 1463 280Z" fill="black"/>
<path fill-rule="evenodd" clip-rule="evenodd" d="M1407.83 672L1413.6 662L1419.38 672L1494.43 802L1500.21 812H1488.66H1468.12L1470.43 816L1476.21 826H1464.66H1314.55H1303L1308.77 816L1383.83 686L1389.6 676L1395.38 686L1397.56 689.785L1407.83 672ZM1391.79 699.785L1389.6 696L1320.32 816H1458.88L1456.58 812H1338.55H1327L1332.77 802L1391.79 699.785ZM1450.8 802H1344.32L1397.56 709.785L1450.8 802ZM1462.35 802L1403.33 699.785L1413.6 682L1482.88 802H1462.35Z" fill="#121212"/>
<path fill-rule="evenodd" clip-rule="evenodd" d="M425.829 -72L431.603 -82L437.376 -72L512.432 58L518.205 68H506.658H486.122L488.432 72L494.205 82H482.658H332.547H321L326.774 72L401.829 -58L407.603 -68L413.376 -58L415.561 -54.2154L425.829 -72ZM409.788 -44.2154L407.603 -48L338.321 72H476.885L474.575 68H356.547H345L350.774 58L409.788 -44.2154ZM468.802 58H362.321L415.561 -34.2154L468.802 58ZM480.349 58L421.335 -44.2154L431.603 -62L500.885 58H480.349Z" fill="#121212"/>
<path fill-rule="evenodd" clip-rule="evenodd" d="M153 432C153 451.33 137.33 467 118 467C98.67 467 83 451.33 83 432C83 412.67 98.67 397 118 397C137.33 397 153 412.67 153 432ZM100 512C100 553.421 66.4214 587 25 587C-16.4214 587 -50 553.421 -50 512C-50 470.579 -16.4214 437 25 437C66.4214 437 100 470.579 100 512ZM119.5 512C128.06 512 135 505.06 135 496.5C135 487.94 128.06 481 119.5 481C110.94 481 104 487.94 104 496.5C104 505.06 110.94 512 119.5 512Z" fill="#121212"/>
<path fill-rule="evenodd" clip-rule="evenodd" d="M1064 818.656C1064 859.887 1030.58 893.312 989.344 893.312C948.113 893.312 914.688 859.887 914.688 818.656C914.688 777.425 948.113 744 989.344 744C1030.58 744 1064 777.425 1064 818.656ZM950.955 989.298C950.955 1077.65 879.33 1149.28 790.977 1149.28C702.624 1149.28 631 1077.65 631 989.298C631 900.945 702.624 829.321 790.977 829.321C879.33 829.321 950.955 900.945 950.955 989.298ZM591.062 924.124C609.322 924.124 624.124 909.322 624.124 891.062C624.124 872.802 609.322 858 591.062 858C572.802 858 558 872.802 558 891.062C558 909.322 572.802 924.124 591.062 924.124Z" fill="#121212"/>
</g>
<defs>
<clipPath id="clip0_7_5">
<rect width="1440" height="1024" fill="white"/>
</clipPath>
</defs>
</svg>
