<svg width="31" height="31" viewBox="0 0 31 31" fill="none" xmlns="http://www.w3.org/2000/svg">
<circle cx="15.75" cy="15.8524" r="14.5" fill="white" stroke="black"/>
<path fill-rule="evenodd" clip-rule="evenodd" d="M12.0167 5.85242H11.75C10.6454 5.85242 9.75 6.74785 9.75 7.85242V23.8524C9.75 24.957 10.6454 25.8524 11.75 25.8524H19.75C20.8546 25.8524 21.75 24.957 21.75 23.8524V7.85242C21.75 6.74785 20.8546 5.85242 19.75 5.85242H19.4833C19.4833 5.85571 19.4833 5.859 19.4833 5.8623C19.4833 6.34831 19.0893 6.7423 18.6033 6.7423H12.8967C12.4107 6.7423 12.0167 6.34831 12.0167 5.8623C12.0167 5.859 12.0167 5.85571 12.0167 5.85242ZM11.75 4.85242C10.0931 4.85242 8.75 6.19556 8.75 7.85242V23.8524C8.75 25.5093 10.0931 26.8524 11.75 26.8524H19.75C21.4069 26.8524 22.75 25.5093 22.75 23.8524V7.85242C22.75 6.19556 21.4069 4.85242 19.75 4.85242H11.75ZM12 24.52C12 24.3985 12.0985 24.3 12.22 24.3H19.2467C19.3682 24.3 19.4667 24.3985 19.4667 24.52C19.4667 24.6415 19.3682 24.74 19.2467 24.74H12.22C12.0985 24.74 12 24.6415 12 24.52Z" fill="black"/>
</svg>
