<svg width="106" height="67" viewBox="0 0 106 67" fill="none" xmlns="http://www.w3.org/2000/svg">
<rect x="0.25" y="1.25" width="105" height="65" rx="5" fill="white"/>
<rect x="1.75" y="2.42599" width="102" height="62" rx="3.5" stroke="black" stroke-width="3"/>
<rect x="1.75" y="2.42599" width="102" height="13" rx="3.5" stroke="black" stroke-width="3"/>
<circle cx="97.25" cy="8.92599" r="2" fill="black"/>
<circle cx="91.25" cy="8.92599" r="2" fill="black"/>
<circle cx="85.25" cy="8.92599" r="2" fill="black"/>
<circle cx="52.75" cy="39.8524" r="15" fill="black"/>
<path fill-rule="evenodd" clip-rule="evenodd" d="M49.0167 29.8524H48.75C47.6454 29.8524 46.75 30.7478 46.75 31.8524V47.8524C46.75 48.957 47.6454 49.8524 48.75 49.8524H56.75C57.8546 49.8524 58.75 48.957 58.75 47.8524V31.8524C58.75 30.7478 57.8546 29.8524 56.75 29.8524H56.4833C56.4833 29.8557 56.4833 29.859 56.4833 29.8623C56.4833 30.3483 56.0893 30.7423 55.6033 30.7423H49.8967C49.4106 30.7423 49.0167 30.3483 49.0167 29.8623C49.0167 29.859 49.0167 29.8557 49.0167 29.8524ZM48.75 28.8524C47.0931 28.8524 45.75 30.1956 45.75 31.8524V47.8524C45.75 49.5093 47.0931 50.8524 48.75 50.8524H56.75C58.4069 50.8524 59.75 49.5093 59.75 47.8524V31.8524C59.75 30.1956 58.4069 28.8524 56.75 28.8524H48.75ZM49.0167 49.4423C49.0167 49.3208 49.1152 49.2223 49.2367 49.2223H56.2633C56.3848 49.2223 56.4833 49.3208 56.4833 49.4423C56.4833 49.5638 56.3848 49.6623 56.2633 49.6623H49.2367C49.1152 49.6623 49.0167 49.5638 49.0167 49.4423Z" fill="white"/>
</svg>
